<svg width="2629" height="1576" viewBox="0 0 2629 1576" fill="none" xmlns="http://www.w3.org/2000/svg">
<path d="M51.4971 1574.93C46.5294 1575.95 41.402 1576.13 36.3945 1575.47L37.5605 1566.55C41.5871 1567.08 45.71 1566.93 49.6895 1566.12L51.4971 1574.93ZM16.8682 1555.82C19.4584 1558.8 22.5899 1561.21 26.083 1563.01L21.9629 1571.01C17.5093 1568.71 13.4536 1565.61 10.0723 1561.72L16.8682 1555.82ZM76.6768 1559.21C73.5382 1563.4 69.7454 1566.79 65.5449 1569.39L60.8096 1561.74C64.0879 1559.71 67.0343 1557.08 69.4746 1553.82L76.6768 1559.21ZM8.99902 1531.97C9.01003 1535.05 9.19772 1537.65 9.55566 1539.79C9.91085 1541.9 10.4193 1543.86 11.0527 1545.69L6.80176 1547.16L6.80273 1547.16L2.55371 1548.64C1.86189 1546.65 1.29623 1544.56 0.874023 1542.35L0.680664 1541.28C0.217405 1538.52 0.0121127 1535.4 0 1532L8.99902 1531.97ZM85.9297 1530.23C85.7563 1533.08 85.4998 1535.78 85.1211 1538.29C84.7244 1540.9 84.1576 1543.38 83.4434 1545.71L74.8398 1543.08C75.421 1541.18 75.8888 1539.14 76.2217 1536.95C76.5505 1534.77 76.7884 1532.34 76.9502 1529.69L85.9297 1530.23ZM14.2295 1499.18L14.0889 1508.17L10.9043 1508.12C10.6382 1510.27 10.3896 1512.36 10.165 1514.4L1.2207 1513.42C1.55031 1510.42 1.92666 1507.33 2.33105 1504.17V1504.18C2.72107 1501.21 5.23079 1499.03 8.2207 1499.08L14.2295 1499.18ZM85.6221 1503.76C85.9101 1504.43 86.076 1505.17 86.0908 1505.94C86.1414 1508.67 86.1865 1511.38 86.2139 1514.04L77.2178 1514.13C77.201 1512.5 77.175 1510.84 77.1465 1509.16L74.1807 1509.12L74.3213 1500.12L80.3311 1500.21C81.1048 1500.23 81.8415 1500.39 82.5137 1500.67L80.8486 1504.62L80.2441 1506.05L80.2832 1506.05L85.6221 1503.76ZM62.3027 1499.93L62.1631 1508.93L50.1445 1508.74L50.2852 1499.74L62.3027 1499.93ZM38.2656 1499.55L38.126 1508.55L26.1074 1508.36L26.2471 1499.36L38.2656 1499.55ZM80.2432 1506.05L80.2393 1506.06V1506.07L80.2754 1506.05L80.2432 1506.05ZM8.10156 1504.89L7.84473 1504.18H6.76758L8.10156 1504.89ZM6.7627 1504.18H7.84375L7.8418 1504.17H6.75293L6.7627 1504.18ZM88.0107 1463.39H88.0127C87.7235 1464.74 87.4696 1466.13 87.251 1467.56C87.138 1468.27 86.9027 1468.94 86.5703 1469.53L81.4971 1466.69L83.4365 1472.17C82.7946 1472.4 82.1021 1472.52 81.3809 1472.51L72.7676 1472.38L72.9092 1463.38L78.8184 1463.47C78.9417 1462.81 79.0711 1462.15 79.2109 1461.5L88.0107 1463.39ZM55.6846 1463.11L55.543 1472.11L38.3174 1471.84L38.459 1462.84L55.6846 1463.11ZM7.09961 1458.69L16.0928 1459.04C16.0478 1460.19 15.9938 1461.34 15.9316 1462.48L21.2344 1462.57L21.0928 1471.57L12.4805 1471.43C12.0741 1471.42 11.6812 1471.38 11.3027 1471.3L12.4766 1465.8L11.8154 1466.7L11.8164 1466.71L9.15332 1470.33C8.92161 1470.16 8.69893 1469.97 8.48633 1469.76L8.27051 1469.54C7.99519 1469.24 7.75588 1468.93 7.55371 1468.6L12.2627 1465.7L6.77734 1466.37C6.73078 1465.99 6.72166 1465.6 6.75098 1465.19C6.8968 1463.01 7.01409 1460.84 7.09863 1458.69L7.09961 1458.69ZM278.452 1461.71C273.528 1463.24 268.449 1463.75 263.455 1463.36L264.156 1454.39C268.073 1454.7 272.002 1454.3 275.774 1453.12L278.452 1461.71ZM242.438 1444.63C245.394 1447.41 248.826 1449.7 252.528 1451.37L248.829 1459.57C244.225 1457.5 239.956 1454.65 236.266 1451.17L242.438 1444.63ZM95.8301 1445.39C94.6805 1447.61 93.5341 1449.66 92.4004 1451.51L92.1602 1451.91C91.544 1452.96 90.9893 1454.09 90.4844 1455.29L90.4814 1455.29L82.1904 1451.79C82.9116 1450.08 83.7472 1448.41 84.7197 1446.82L84.7266 1446.81C85.7295 1445.17 86.7707 1443.32 87.8359 1441.26L95.8301 1445.39ZM302.646 1441.73C300.849 1444.61 299.038 1447.16 297.19 1449.26C295.453 1451.24 293.624 1452.99 291.726 1454.54L286.052 1447.55C287.549 1446.34 289.013 1444.93 290.427 1443.32L290.967 1442.69C292.236 1441.16 293.581 1439.26 295.007 1436.97L302.646 1441.73ZM15.6465 1438.31H15.6484C15.8732 1440.62 16.0274 1442.96 16.123 1445.31L11.626 1445.49L11.627 1445.49L7.13086 1445.67C7.06299 1444.01 6.96423 1442.36 6.83008 1440.73L6.69043 1439.18C6.68318 1439.1 6.67393 1439.02 6.66406 1438.95L15.5869 1437.76C15.6122 1437.95 15.6301 1438.14 15.6465 1438.31ZM232.079 1423.75C232.441 1427.81 233.561 1431.6 235.282 1435.05L231.255 1437.06L231.256 1437.06L227.23 1439.07C225.025 1434.65 223.581 1429.77 223.116 1424.55L232.079 1423.75ZM13.8447 1429.67C14.2426 1431.87 14.7047 1433.99 15.2295 1436H15.2275C15.2614 1436.13 15.2982 1436.25 15.3301 1436.39L10.9541 1437.44L10.9551 1437.44L6.58008 1438.49L6.52051 1438.27C5.93408 1436.02 5.42292 1433.68 4.9873 1431.27L13.8447 1429.67ZM98.0713 1416.44L106.599 1419.32C105.028 1423.98 103.38 1428.42 101.691 1432.55L93.3594 1429.15C94.9721 1425.2 96.5569 1420.94 98.0713 1416.44ZM307.799 1406.3L312.961 1409.38C313.592 1409.76 314.128 1410.23 314.559 1410.78L310.008 1414.38L315.799 1414.76C315.753 1415.45 315.584 1416.15 315.28 1416.82L315.282 1416.82L315.279 1416.83L315.286 1416.83L315.288 1416.83L315.291 1416.83C313.971 1419.73 312.665 1422.56 311.37 1425.28L303.245 1421.41C304.13 1419.55 305.022 1417.64 305.928 1415.66L303.188 1414.03L307.799 1406.3ZM12.167 1402.93C12.0024 1407.58 12.0494 1412.11 12.3076 1416.46L3.3252 1416.99C3.04922 1412.34 2.99988 1407.52 3.17383 1402.61L12.167 1402.93ZM238.405 1399.3C237.148 1401.64 236.075 1403.82 235.21 1405.85C234.341 1407.89 233.665 1409.87 233.16 1411.8L224.457 1409.51C225.077 1407.15 225.895 1404.75 226.931 1402.32C227.928 1399.99 229.129 1397.55 230.479 1395.04L238.405 1399.3ZM297.475 1400.14L295.171 1404.01L295.17 1404.01L292.865 1407.87L282.542 1401.71L287.151 1393.98L297.475 1400.14ZM114.16 1392.14C113.129 1396.78 111.978 1401.36 110.736 1405.83L102.066 1403.42C103.267 1399.1 104.379 1394.67 105.375 1390.19L114.16 1392.14ZM276.828 1387.83L272.219 1395.56L261.895 1389.4L266.505 1381.67L276.828 1387.83ZM15.3652 1375.83C14.4699 1380.33 13.7541 1384.85 13.2217 1389.33L4.28516 1388.27C4.84536 1383.55 5.59771 1378.8 6.53906 1374.07L15.3652 1375.83ZM243.121 1374.29C244.821 1371.65 248.321 1370.83 251.021 1372.43L256.182 1375.51L251.571 1383.24L249.038 1381.73C248.129 1383.14 247.233 1384.54 246.356 1385.93L238.752 1381.11C239.402 1380.09 240.061 1379.05 240.727 1378.01L243.121 1374.29ZM335.143 1375.64C334.084 1377.52 333.047 1379.43 332.03 1381.36L331.879 1381.63C331.727 1381.89 331.56 1382.13 331.379 1382.35L327.022 1378.83L329.546 1383.83C329.201 1384.01 328.832 1384.15 328.44 1384.26L328.142 1384.34C327.849 1384.4 327.559 1384.45 327.271 1384.47L326.823 1378.92L324.934 1384.16C324.663 1384.06 324.396 1383.94 324.132 1383.8L323.86 1383.65L316.462 1379.24L321.074 1371.51L325.638 1374.23C326.186 1373.22 326.742 1372.22 327.304 1371.22L335.143 1375.64ZM118.666 1364.29C118.22 1368.92 117.6 1373.6 116.835 1378.28L107.954 1376.83C108.69 1372.33 109.283 1367.84 109.708 1363.43L118.666 1364.29ZM306.279 1362.68L303.973 1366.54L303.974 1366.55L301.667 1370.41L286.873 1361.58L291.484 1353.85L306.279 1362.68ZM347.998 1350.42L348.193 1350.6C349.606 1351 350.897 1351.73 351.956 1352.74C350.12 1354.82 348.253 1356.77 346.36 1358.58C346.121 1358.8 345.94 1359.01 345.74 1359.26H345.751C343.968 1361.6 342.247 1364.07 340.581 1366.63C339.339 1365.76 338.312 1364.58 337.629 1363.16C337.318 1362.51 337.091 1361.84 336.943 1361.16L334.505 1359.51C335.737 1357.69 337.009 1355.91 338.319 1354.17C338.444 1353.99 338.574 1353.81 338.713 1353.64C338.789 1353.54 338.881 1353.43 338.983 1353.31L345.74 1358.96V1358.29L339.795 1352.41C339.908 1352.3 340.024 1352.19 340.145 1352.07C341.65 1350.64 343.154 1349.08 344.651 1347.41L347.998 1350.42ZM22.833 1349.65C21.2401 1353.83 19.8146 1358.15 18.5625 1362.56L9.90625 1360.1C11.2264 1355.45 12.7337 1350.88 14.4248 1346.45L22.833 1349.65ZM345.743 1358.96L345.748 1358.97V1358.3L345.743 1358.29V1358.96ZM263.835 1337.1L272.315 1340.12C272.092 1340.74 271.856 1341.37 271.614 1342L276.689 1345.03L272.078 1352.75L264.681 1348.34C264.061 1347.97 263.533 1347.51 263.105 1346.98L267.62 1343.34L261.831 1343.08C261.862 1342.4 262.012 1341.72 262.291 1341.05C262.856 1339.72 263.371 1338.4 263.832 1337.1L263.835 1337.1ZM118.897 1336.11C119.35 1340.63 119.526 1345.35 119.462 1350.21L110.464 1350.09C110.525 1345.52 110.358 1341.14 109.944 1337.01L118.897 1336.11ZM367.954 1330.01C365.519 1334.28 362.945 1338.35 360.263 1342.16L352.903 1336.99C355.412 1333.42 357.835 1329.59 360.138 1325.55L367.954 1330.01ZM34.8936 1325.87C32.5148 1329.41 30.2934 1333.25 28.2432 1337.32L20.2051 1333.28C22.4081 1328.9 24.816 1324.73 27.4248 1320.85L34.8936 1325.87ZM275.616 1318.37C275.439 1320.68 275.348 1322.81 275.341 1324.73C275.333 1326.6 275.168 1328.46 274.884 1330.29L265.99 1328.91L265.986 1328.91C266.21 1327.47 266.335 1326.06 266.341 1324.69C266.349 1322.52 266.451 1320.17 266.643 1317.68L275.616 1318.37ZM110.975 1309.28C113.288 1313.09 115.075 1317.46 116.4 1322.26L107.728 1324.66C106.577 1320.49 105.085 1316.92 103.284 1313.96L110.975 1309.28ZM380.094 1303.96C378.41 1308.48 376.554 1312.91 374.549 1317.22L366.39 1313.43C368.296 1309.33 370.062 1305.11 371.663 1300.82L380.094 1303.96ZM52.2598 1307.67C49.0008 1309.88 45.8682 1312.59 42.8818 1315.76L36.3291 1309.6C39.7118 1306 43.3383 1302.85 47.2051 1300.22L52.2598 1307.67ZM88.3896 1293.47C90.6298 1294.07 92.9103 1294.82 95.2305 1295.72C97.4882 1296.6 99.564 1297.7 101.467 1299.01L96.3691 1306.43C95.0422 1305.52 93.5832 1304.74 91.9688 1304.11C89.9408 1303.32 87.9719 1302.68 86.0625 1302.17L88.3896 1293.47ZM271.189 1289.84L279.955 1291.88C278.88 1296.5 277.985 1300.96 277.279 1305.17L268.403 1303.68C269.08 1299.65 269.918 1295.41 270.91 1291.05L271.189 1289.84ZM74.2275 1300.58C70.2174 1300.61 66.4254 1301.25 62.8271 1302.42L60.04 1293.86C64.5049 1292.41 69.214 1291.61 74.1611 1291.58L74.2275 1300.58ZM387.912 1276.31C387.019 1280.98 385.898 1285.65 384.578 1290.3L375.923 1287.84C377.175 1283.44 378.233 1279.01 379.074 1274.62L387.912 1276.31ZM287.547 1265.7C286.036 1270.04 284.653 1274.4 283.403 1278.7L274.76 1276.19C276.052 1271.74 277.484 1267.24 279.048 1262.74L287.547 1265.7ZM390.309 1247.71C390.486 1252.38 390.345 1257.19 389.916 1262.07L380.954 1261.29C381.353 1256.74 381.48 1252.31 381.318 1248.05L390.309 1247.71ZM297.929 1240.66C295.97 1244.64 294.115 1248.77 292.373 1252.99L284.055 1249.55C285.866 1245.17 287.801 1240.86 289.854 1236.69L297.929 1240.66ZM384.327 1219.76C386.237 1224.02 387.663 1228.62 388.65 1233.45L379.835 1235.25C378.963 1230.98 377.724 1227.03 376.114 1223.44L384.327 1219.76ZM311.616 1218.07C309.094 1221.36 306.649 1225 304.297 1228.92L296.58 1224.29C299.081 1220.12 301.715 1216.2 304.472 1212.6L311.616 1218.07ZM365.941 1198.23C370.131 1200.86 373.719 1204.02 376.753 1207.6L369.885 1213.42C367.44 1210.53 364.551 1207.99 361.155 1205.85L365.941 1198.23ZM329.404 1201.96C326.313 1203.53 323.166 1205.79 319.998 1208.73L313.879 1202.13C317.53 1198.74 321.347 1195.96 325.317 1193.94L329.404 1201.96ZM338.807 1190.2C341.113 1190.09 343.458 1190.24 345.841 1190.68C348.288 1191.13 350.62 1191.7 352.841 1192.36L351.547 1196.67L351.546 1196.67L350.251 1200.98C348.358 1200.41 346.344 1199.93 344.204 1199.53C342.501 1199.22 340.851 1199.11 339.243 1199.19L338.807 1190.2ZM523.255 1050.29C526.797 1051.99 530.605 1053.03 534.547 1053.3L533.947 1062.28C528.801 1061.93 523.881 1060.57 519.364 1058.4L523.255 1050.29ZM563.722 1052.36C561.004 1054.41 558.398 1056.12 555.911 1057.42C553.577 1058.64 551.238 1059.62 548.912 1060.37L546.138 1051.81C547.972 1051.22 549.844 1050.44 551.742 1049.44L551.749 1049.44C553.668 1048.44 555.852 1047.03 558.314 1045.17L563.722 1052.36ZM506.524 1033.35C508.276 1037.02 510.651 1040.39 513.501 1043.28L510.295 1046.44L510.296 1046.44L507.091 1049.6C503.547 1046 500.591 1041.81 498.405 1037.23L506.524 1033.35ZM285.094 1035.96C288.678 1037.87 292.588 1039.18 296.6 1039.82L295.191 1048.7C290.183 1047.91 285.321 1046.27 280.863 1043.9L285.094 1035.96ZM324.292 1042.84C319.88 1045.66 315.137 1047.5 310.29 1048.46L310.228 1048.14L308.548 1039.63C312.33 1038.88 316.016 1037.45 319.446 1035.26L324.292 1042.84ZM581.297 1021.19L585.001 1025.92L585.169 1026.14C585.537 1026.66 585.809 1027.22 585.989 1027.8L580.432 1029.53L585.719 1031.95C585.429 1032.59 585.023 1033.18 584.501 1033.69V1033.69H584.493L584.498 1033.7H584.501V1033.7C582.223 1035.93 579.985 1038.1 577.796 1040.17L571.611 1033.63C573.104 1032.22 574.625 1030.76 576.177 1029.25L574.21 1026.73L581.297 1021.19ZM269.499 1018.63C270.874 1022.34 272.96 1025.69 275.597 1028.6L269.359 1034.25L268.926 1034.64C265.564 1030.93 262.857 1026.6 261.062 1021.77L261.494 1021.61L269.499 1018.63ZM343.145 1018.98C341.98 1021.58 340.79 1024.02 339.551 1026.23C338.261 1028.54 336.861 1030.65 335.371 1032.59L328.243 1027.1C329.457 1025.52 330.614 1023.77 331.696 1021.84L331.697 1021.83C332.772 1019.92 333.847 1017.73 334.933 1015.3L343.145 1018.98ZM504.393 1010.15C503.266 1014.06 502.944 1018 503.305 1021.84L494.346 1022.68C493.884 1017.76 494.297 1012.69 495.745 1007.66L504.393 1010.15ZM573.891 1011.72L566.803 1017.27L559.396 1007.8L566.483 1002.25L573.891 1011.72ZM609.508 997.686C610.384 996.942 611.265 996.206 612.15 995.478L617.865 1002.43C616.2 1003.8 614.545 1005.21 612.9 1006.64L612.663 1006.84C612.429 1007.02 612.187 1007.19 611.938 1007.33L609.146 1002.49L609.694 1008.05C609.408 1008.08 609.116 1008.09 608.818 1008.07L608.511 1008.05C608.106 1008.01 607.718 1007.94 607.347 1007.83L608.934 1002.46L605.277 1006.7C605.059 1006.51 604.851 1006.3 604.656 1006.08L604.461 1005.84L599.153 999.055L606.242 993.511L609.508 997.686ZM270.52 993.548C269.443 996.439 268.708 998.933 268.295 1001.05L268.294 1001.06C267.883 1003.16 267.668 1005.18 267.62 1007.1L258.625 1006.88C258.677 1004.78 258.885 1002.61 259.265 1000.4L259.461 999.332C259.996 996.583 260.9 993.596 262.087 990.408L270.52 993.548ZM348.471 988.912C349.19 989.194 349.822 989.604 350.352 990.106L347.257 993.372L347.256 993.371L346.34 994.338L346.366 994.347L352.17 994.088C352.203 994.817 352.099 995.564 351.841 996.292L350.355 1000.46C349.94 1001.62 349.522 1002.77 349.106 1003.92L340.652 1000.84C341.211 999.303 341.768 997.745 342.331 996.167L339.58 995.083L342.877 986.709L348.471 988.912ZM519.108 989.618C517.09 991.35 515.304 993.001 513.772 994.576L513.771 994.578C512.225 996.167 510.878 997.775 509.713 999.387L502.419 994.118C503.635 992.435 504.994 990.777 506.507 989.155L507.32 988.301C509.088 986.483 511.085 984.647 513.25 982.79L519.108 989.618ZM559.076 992.788L555.533 995.561L555.532 995.56L551.989 998.334L544.583 988.867L551.67 983.321L559.076 992.788ZM346.329 994.349L346.361 994.347L346.338 994.339L346.329 994.349ZM633.868 990.863C633.803 990.9 633.738 990.939 633.671 990.981L632.352 991.805C630.973 992.681 629.599 993.598 628.228 994.549L628.227 994.548L623.094 987.156C624.543 986.15 626.005 985.176 627.479 984.239L628.956 983.315C629.121 983.213 629.288 983.114 629.46 983.017L633.868 990.863ZM331.692 982.303L328.396 990.677L317.21 986.273L320.508 977.899L331.692 982.303ZM640.996 987.565C638.81 988.674 636.639 989.68 634.49 990.571C634.417 990.6 634.347 990.629 634.279 990.659L630.652 982.422C630.789 982.363 630.919 982.308 631.042 982.258C632.965 981.461 634.928 980.553 636.925 979.54L640.996 987.565ZM595.628 979.941L588.539 985.486L577.923 971.916L585.013 966.371L595.628 979.941ZM298.137 969.089L309.322 973.494L306.025 981.868L294.84 977.463L298.137 969.089ZM664.938 971.708C661.127 974.813 657.258 977.682 653.379 980.273L648.382 972.792C652.009 970.368 655.651 967.67 659.256 964.733L664.938 971.708ZM532.521 968.002C535.071 966.152 538.621 966.642 540.561 969.122L544.264 973.854L537.176 979.401L535.355 977.074C533.999 978.065 532.661 979.046 531.345 980.021L525.989 972.79C528.129 971.205 530.316 969.608 532.521 968.002ZM274.206 964.938C275.656 962.471 278.677 961.416 281.36 962.481L286.952 964.683L283.655 973.057L280.699 971.893C279.696 973.809 278.727 975.684 277.799 977.516L269.772 973.45C271.135 970.761 272.573 968 274.061 965.181H274.063L274.068 965.185V965.181H274.07L274.206 964.938ZM359.977 953.994C360.325 953.417 360.679 952.847 361.04 952.286L368.61 957.154L368.612 957.155C367.867 958.314 367.139 959.527 366.431 960.792C366.077 961.42 365.625 961.958 365.104 962.398L361.356 957.968L361.243 963.768C360.648 963.757 360.046 963.655 359.457 963.455L359.2 963.361L351.185 960.205L354.483 951.831L359.977 953.994ZM685.654 951.796C682.456 955.4 679.124 958.868 675.698 962.166L669.458 955.682C672.713 952.549 675.883 949.251 678.925 945.823L685.654 951.796ZM565.272 940.772L572.098 946.638C571.661 947.146 571.213 947.649 570.759 948.15L574.397 952.8L567.308 958.346L562.001 951.561C561.554 950.994 561.228 950.37 561.021 949.72L566.517 947.963L561.242 945.628C561.483 945.084 561.811 944.569 562.225 944.102L562.411 943.901C563.418 942.86 564.373 941.815 565.271 940.77L565.272 940.772ZM338.453 945.518L336.804 949.704L336.805 949.705L335.155 953.891L319.125 947.58L322.424 939.206L338.453 945.518ZM382.265 943.054C380.406 944.732 378.612 946.248 376.9 947.582C375.825 948.423 374.786 949.383 373.778 950.445L373.776 950.443L367.249 944.248C368.524 942.905 369.889 941.64 371.354 940.494C371.359 940.49 371.365 940.485 371.37 940.481C372.885 939.301 374.512 937.93 376.234 936.376L382.265 943.054ZM294.525 924.291L302.82 927.785C302.375 928.842 301.919 929.896 301.457 930.949L306.394 932.893L304.744 937.079L304.745 937.08L303.096 941.266L295.081 938.111C294.703 937.961 294.351 937.78 294.025 937.572L297.022 932.885L292.354 935.913C292.145 935.589 291.962 935.238 291.811 934.861C291.656 934.483 291.543 934.104 291.469 933.725L296.88 932.666L291.521 931.371L291.521 931.37C291.611 930.995 291.742 930.622 291.911 930.252C292.815 928.265 293.688 926.276 294.524 924.29L294.525 924.291ZM702.916 928.828C700.402 932.854 697.67 936.813 694.763 940.672L687.576 935.257C690.333 931.598 692.915 927.854 695.283 924.062L702.916 928.828ZM583.013 927.547C582.013 929.641 581.162 931.592 580.463 933.38C579.782 935.122 578.957 936.797 578.032 938.403L570.233 933.912L570.229 933.91C570.96 932.642 571.584 931.374 572.081 930.101C572.872 928.08 573.812 925.928 574.892 923.669L583.013 927.547ZM401.516 922.437C398.406 926.248 395.301 929.825 392.265 933.104L385.661 926.991C388.561 923.859 391.544 920.424 394.543 916.749L401.516 922.437ZM1692.33 923.796C1687.52 923.994 1682.71 924.004 1677.96 923.827L1678.3 914.834C1682.81 915.002 1687.39 914.994 1691.96 914.805L1692.33 923.796ZM1651.35 911.539C1655.61 912.468 1660.08 913.216 1664.7 913.772L1663.62 922.705C1658.74 922.116 1653.99 921.322 1649.43 920.329L1651.35 911.539ZM1720.8 920.046L1720.85 920.28C1716.21 921.265 1711.46 922.046 1706.67 922.631L1706.63 922.355L1705.58 913.701C1710.12 913.146 1714.61 912.405 1718.98 911.477L1720.8 920.046ZM1623.46 903.315C1625.6 903.741 1627.72 904.216 1629.81 904.744C1629.97 904.777 1630.14 904.814 1630.3 904.856C1630.53 904.916 1630.76 904.982 1630.98 905.051L1628.29 913.571H1628.79L1632.13 905.469L1632.49 905.624L1632.5 905.628C1634.41 906.458 1636.43 907.242 1638.54 907.976L1636.6 913.571H1637.05V913.573H1636.6L1636.6 913.579H1637.05V913.582C1637.05 914.687 1636.84 915.766 1636.46 916.774C1633.83 915.888 1631.31 914.925 1628.91 913.881C1628.61 913.751 1628.36 913.651 1628.05 913.571V913.582C1625.2 912.849 1622.26 912.221 1619.25 911.68C1619.7 909.626 1620.85 907.767 1622.54 906.456C1622.65 906.369 1622.76 906.285 1622.88 906.204L1623.46 903.315ZM1748.15 911.395C1743.91 913.372 1739.42 915.107 1734.75 916.606L1732 908.04C1736.35 906.645 1740.48 905.043 1744.35 903.241L1748.15 911.395ZM715.467 903.008C713.947 907.433 712.081 911.868 709.92 916.269L701.845 912.303C703.856 908.207 705.573 904.121 706.959 900.087L715.467 903.008ZM596.612 904.408C593.943 908.33 591.501 912.167 589.324 915.839L581.582 911.249C583.861 907.405 586.404 903.41 589.172 899.343L596.612 904.408ZM301.048 905.657L309.82 907.666C309.771 907.88 309.716 908.098 309.654 908.318L309.653 908.317C309.062 910.524 308.4 912.73 307.677 914.928L299.127 912.117L299.125 912.116C299.813 910.025 300.439 907.946 300.99 905.881C301.012 905.804 301.03 905.729 301.047 905.656L301.048 905.657ZM1628.29 913.579H1628.79L1628.79 913.573H1628.29L1628.29 913.579ZM418.154 899.654C415.556 903.637 412.866 907.523 410.132 911.268L402.864 905.963C405.508 902.341 408.108 898.585 410.617 894.738L418.154 899.654ZM1598.28 894.34L1607.19 895.592L1606.45 900.846C1607.59 900.961 1608.73 901.084 1609.87 901.216L1608.83 910.156L1608.83 910.157C1606.69 909.908 1604.53 909.691 1602.35 909.502C1601.95 909.467 1601.56 909.395 1601.19 909.288L1602.73 903.933L1599.11 908.172C1598.89 907.985 1598.69 907.78 1598.49 907.556L1598.29 907.321C1598.04 907.002 1597.82 906.67 1597.64 906.327L1597.84 906.224L1602.54 903.774L1597.08 904.052L1597.02 904.054C1597 903.67 1597.02 903.275 1597.08 902.872L1598.28 894.339L1598.28 894.34ZM1569.96 896.839L1569.12 902.792L1569.08 903.067C1568.96 903.691 1568.74 904.274 1568.45 904.804L1568.3 904.72L1563.36 902.013L1565.27 907.497C1564.61 907.724 1563.91 907.841 1563.17 907.821V907.832C1559.98 907.739 1556.87 907.63 1553.86 907.492L1554.27 898.505C1556.33 898.599 1558.44 898.676 1560.6 898.747L1561.05 895.587L1569.96 896.839ZM302.188 897.879L311.042 899.497C310.64 901.699 310.329 903.84 310.112 905.91C310.106 905.969 310.099 906.029 310.092 906.088C310.078 906.196 310.061 906.333 310.039 906.483L301.131 905.201L301.127 905.2C301.138 905.126 301.151 905.05 301.161 904.971C301.404 902.658 301.748 900.29 302.188 897.879ZM1523.5 892.793C1525.21 893.7 1527.07 894.505 1529.1 895.183C1531.15 895.869 1533.69 896.457 1536.73 896.944L1535.31 905.83C1531.96 905.293 1528.91 904.609 1526.25 903.721C1523.75 902.888 1521.43 901.882 1519.27 900.731L1523.5 892.793ZM1771.59 895.043C1768.4 898.457 1764.72 901.552 1760.64 904.339L1755.56 896.912C1759.16 894.452 1762.32 891.777 1765.01 888.899L1771.59 895.043ZM969.541 896.802C966.531 897.255 963.725 897.521 961.159 897.544L960.271 897.542C957.637 897.503 955.116 897.248 952.711 896.804L954.345 887.957C956.241 888.307 958.259 888.511 960.401 888.543C962.564 888.572 965.156 888.363 968.202 887.905L969.541 896.802ZM613.133 882.73C610.16 886.231 607.299 889.793 604.581 893.358L597.425 887.902C600.236 884.214 603.195 880.53 606.273 876.905L613.133 882.73ZM999.854 877.755L1000.86 883.681C1000.98 884.405 1000.97 885.122 1000.83 885.802L995.124 884.668L998.604 889.33C998.046 889.745 997.407 890.069 996.701 890.271L996.698 890.273L996.684 890.256L996.688 890.271L996.693 890.278L996.69 890.281C993.626 891.156 990.628 891.994 987.717 892.773L985.391 884.082C987.382 883.549 989.423 882.979 991.513 882.39L990.982 879.26L999.854 877.755ZM934.944 875.725C937.252 878.905 940.104 881.636 943.445 883.744L941.043 887.549L941.044 887.55L938.643 891.355C934.281 888.603 930.603 885.064 927.661 881.009L934.944 875.725ZM1508.72 875.263C1509.96 878.993 1511.85 882.458 1514.39 885.479L1507.51 891.279C1504.19 887.336 1501.76 882.85 1500.18 878.095L1508.72 875.263ZM719.967 874.784C720.21 879.451 719.883 884.248 719.061 889.116L710.189 887.617C710.916 883.32 711.185 879.185 710.98 875.252L719.967 874.784ZM432.168 875.173C430.123 879.348 427.894 883.514 425.531 887.628L417.729 883.146C420.002 879.189 422.135 875.197 424.086 871.214L432.168 875.173ZM318.878 873.874C317.089 878.166 315.539 882.425 314.249 886.592L305.653 883.931C307.033 879.476 308.68 874.949 310.571 870.412L318.878 873.874ZM1573.3 873.032L1571.63 884.936L1562.72 883.683L1564.39 871.78L1573.3 873.032ZM1784.3 869.747C1783.49 874.629 1781.98 879.158 1779.86 883.344L1771.83 879.27C1773.55 875.896 1774.77 872.248 1775.42 868.291L1784.3 869.747ZM1035.83 870.521C1036.95 870.284 1038.08 870.056 1039.2 869.838L1040.92 878.672C1038.81 879.084 1036.68 879.533 1034.55 880.011L1034.25 880.071C1033.95 880.122 1033.66 880.15 1033.37 880.158L1033.23 874.55L1031.06 879.721C1030.79 879.61 1030.53 879.479 1030.27 879.326L1030.01 879.161C1029.67 878.934 1029.37 878.683 1029.09 878.41L1033.02 874.471L1032.03 874.846L1032.03 874.847L1028.5 876.178L1027.82 876.433C1027.72 876.165 1027.63 875.886 1027.57 875.595L1027.51 875.292L1026.07 866.797L1034.95 865.295L1035.83 870.521ZM1603.08 860.215L1611.99 861.467L1609.59 878.53L1600.68 877.278L1600.68 877.277L1603.07 860.214L1603.08 860.215ZM1059.77 867.135C1060.37 867.102 1060.96 867.13 1061.55 867.214L1061.55 867.162L1062.03 867.2L1062.11 867.208C1064.18 867.421 1066.34 867.559 1068.58 867.619L1068.46 872.116L1068.46 872.385C1068.99 873.547 1069.27 874.819 1069.27 876.122V876.124H1068.36V876.129H1069.27V876.131H1068.36L1068.35 876.161L1068.34 876.614C1066.38 876.562 1064.45 876.455 1062.57 876.292L1061.19 876.161C1061.11 876.153 1061.03 876.15 1060.96 876.145L1060.96 876.142L1060.96 876.131H1060.75C1060.6 876.126 1060.44 876.126 1060.27 876.131V876.122C1057.33 876.285 1054.34 876.576 1051.31 876.97C1051.28 876.693 1051.27 876.413 1051.27 876.131V876.129H1053.72V876.124H1051.27V876.122H1053.72L1052.79 867.725C1055.12 867.465 1057.45 867.264 1059.77 867.135ZM1060.5 876.129H1060.96V876.124H1060.5V876.129ZM1095.27 865.226L1096.95 874.066C1092.12 874.982 1087.35 875.663 1082.7 876.095L1081.87 867.137C1086.21 866.733 1090.7 866.093 1095.27 865.226ZM631.847 863.118C628.585 866.122 625.366 869.305 622.22 872.611L615.7 866.407C618.971 862.97 622.33 859.648 625.749 856.499L631.847 863.118ZM1124.64 866.416C1120.11 868.062 1115.53 869.526 1110.95 870.796L1108.55 862.124C1112.9 860.917 1117.26 859.526 1121.57 857.96L1124.64 866.416ZM928.292 852.863C928.088 856.92 928.571 861.017 929.701 864.918L921.059 867.422C919.653 862.571 919.05 857.476 919.305 852.411L928.292 852.863ZM997.845 865.903L993.409 866.656L993.408 866.655L988.973 867.408L986.963 855.556L995.835 854.051L997.845 865.903ZM710.583 848.075C713.541 852.041 715.751 856.275 717.288 860.713L713.037 862.185L713.036 862.184L708.784 863.658C707.545 860.082 705.768 856.671 703.37 853.456L710.583 848.075ZM1509.3 851.461C1507.88 855.266 1507.1 859.317 1506.99 863.377L1498 863.147C1498.13 858.099 1499.09 853.06 1500.87 848.31L1509.3 851.461ZM442.296 848.878C441.132 853.261 439.636 857.745 437.865 862.273L429.485 858.997C431.151 854.738 432.536 850.578 433.601 846.568L442.296 848.878ZM331.403 849.634C328.984 853.527 326.724 857.504 324.647 861.517L316.655 857.38C318.841 853.158 321.217 848.976 323.761 844.883L331.403 849.634ZM1576.65 849.225L1574.98 861.13L1566.07 859.877L1567.74 847.973L1576.65 849.225ZM1150.76 854.435C1146.63 856.779 1142.34 858.96 1137.95 860.969L1134.21 852.788C1138.37 850.882 1142.43 848.818 1146.31 846.61L1150.76 854.435ZM1781.18 841.621C1782.17 843.703 1782.94 845.925 1783.46 848.292C1783.99 850.723 1784.38 853.091 1784.62 855.396L1780.15 855.875L1780.15 855.874L1775.68 856.352C1775.47 854.386 1775.13 852.341 1774.67 850.215C1774.3 848.523 1773.76 846.96 1773.06 845.507L1781.18 841.621ZM652.762 846.978C649.221 849.141 645.629 851.654 642.021 854.464L636.492 847.363C640.329 844.376 644.201 841.664 648.071 839.299L652.762 846.978ZM1032.07 848.307L1023.19 849.809L1020.32 832.823L1029.19 831.319L1032.07 848.307ZM1174.08 837.705C1170.64 840.872 1166.89 843.884 1162.89 846.725L1157.68 839.393C1161.4 836.749 1164.85 833.972 1167.99 831.084L1174.08 837.705ZM688.173 830.794C690.365 831.521 692.497 832.51 694.561 833.781C696.68 835.086 698.651 836.452 700.481 837.876L697.721 841.428L697.72 841.427L694.958 844.98C693.397 843.766 691.695 842.585 689.842 841.444C688.367 840.536 686.866 839.843 685.338 839.336L688.173 830.794ZM1616.71 829.493L1617.22 838.478C1616.55 838.516 1615.88 838.542 1615.21 838.562L1614.38 844.405L1605.47 843.153L1605.47 843.152L1606.67 834.622C1606.76 833.985 1606.95 833.386 1607.22 832.839L1607.32 832.641L1612.41 835.388L1610.42 829.959C1610.98 829.754 1611.57 829.632 1612.2 829.606L1612.47 829.601C1613.92 829.606 1615.33 829.568 1616.71 829.49L1616.71 829.493ZM993.825 842.2L989.39 842.953L989.389 842.952L984.952 843.705L982.942 831.853L991.815 830.348L993.825 842.2ZM675.162 838.368C671.711 838.722 667.964 839.688 663.949 841.286L660.621 832.924C665.247 831.083 669.81 829.87 674.243 829.415L675.162 838.368ZM937.457 831.441C934.604 834.348 932.445 837.66 930.936 841.208L922.656 837.683C924.591 833.138 927.367 828.875 931.036 825.137L937.457 831.441ZM1524.51 833.818C1520.92 835.725 1517.86 838.228 1515.34 841.153L1508.52 835.29C1511.74 831.542 1515.67 828.32 1520.3 825.868L1524.51 833.818ZM347.604 827.756C344.644 831.107 341.789 834.648 339.066 838.333L331.829 832.985C334.7 829.1 337.717 825.353 340.86 821.797L347.604 827.756ZM1760.52 823.266C1765.06 825.319 1769.1 827.761 1772.5 830.636L1766.69 837.511C1764.04 835.273 1760.75 833.246 1756.81 831.465L1760.52 823.266ZM1579.04 829.148C1579.22 829.855 1579.27 830.607 1579.16 831.372L1578.32 837.323L1569.41 836.07L1569.82 833.147C1568.17 832.858 1566.53 832.575 1564.92 832.304L1566.41 823.429C1569.03 823.87 1571.7 824.337 1574.39 824.811C1575.15 824.946 1575.85 825.224 1576.47 825.611L1573.38 830.535L1573.38 830.558L1573.42 830.564L1579.04 829.148ZM1638.54 833.079C1636.33 833.812 1634.34 834.553 1632.57 835.291C1630.85 836.008 1629.07 836.578 1627.27 837.028L1625.09 828.295C1626.51 827.939 1627.85 827.506 1629.11 826.981C1631.11 826.148 1633.32 825.331 1635.69 824.54L1638.54 833.079ZM444.317 820.974C445.143 825.353 445.279 830.072 444.832 835.031L435.871 834.223C436.259 829.92 436.119 826.052 435.476 822.643L444.317 820.974ZM1573.35 830.58L1573.36 830.577L1573.37 830.569H1573.36L1573.35 830.58ZM1573.37 830.575L1573.38 830.572L1573.37 830.571L1573.37 830.575ZM1543.13 820.77C1545.42 820.809 1547.84 820.964 1550.36 821.203L1549.51 830.16C1546.86 829.909 1544.43 829.771 1542.23 829.761H1542.23C1540.01 829.751 1537.92 829.898 1535.95 830.178L1534.68 821.271C1537.1 820.927 1539.63 820.749 1542.27 820.761L1543.13 820.77ZM1664.63 826.806C1659.96 827.607 1655.5 828.512 1651.35 829.494L1649.28 820.735C1653.62 819.707 1658.27 818.765 1663.11 817.935L1664.63 826.806ZM1733.38 815.918C1738.19 816.606 1742.83 817.512 1747.22 818.657L1744.95 827.364C1740.93 826.316 1736.63 825.474 1732.1 824.827L1733.38 815.918ZM1191.48 815.024C1189.47 819.245 1186.9 823.308 1183.86 827.197L1176.77 821.656C1179.45 818.223 1181.66 814.716 1183.35 811.159L1191.48 815.024ZM1691.71 823.652C1687.12 823.942 1682.57 824.355 1678.12 824.874L1677.08 815.934C1681.68 815.398 1686.39 814.971 1691.14 814.671L1691.71 823.652ZM960.173 820.39C957.898 820.882 955.809 821.405 953.916 821.967L953.116 822.212C951 822.873 949.049 823.647 947.257 824.51L943.352 816.404C945.222 815.503 947.207 814.692 949.31 813.985L950.431 813.622C952.853 812.865 955.483 812.2 958.271 811.597L960.173 820.39ZM1705.24 814.17C1709.98 814.138 1714.7 814.251 1719.34 814.526L1718.81 823.51C1714.38 823.248 1709.86 823.139 1705.3 823.17L1705.24 814.17ZM982.261 807.761C985.381 807.351 988.271 809.471 988.801 812.571L989.806 818.496L980.933 820.002L980.438 817.089C978.773 817.316 977.129 817.542 975.506 817.773L974.235 808.865C976.872 808.489 979.557 808.125 982.261 807.761ZM367.261 809.737C363.788 812.215 360.36 815.024 357.007 818.119L350.904 811.505C354.507 808.18 358.227 805.13 362.035 802.413L367.261 809.737ZM1024.01 799.416L1027.21 807.825C1026.59 808.062 1025.96 808.289 1025.33 808.511L1026.31 814.332L1017.44 815.834L1016 807.341C1015.88 806.632 1015.89 805.929 1016.02 805.259L1021.72 806.345L1018.16 801.767L1018.16 801.766C1018.69 801.348 1019.31 801.018 1020 800.801C1021.38 800.367 1022.72 799.903 1024.01 799.413L1024.01 799.416ZM428.738 798.231C430.624 799.58 432.496 801.081 434.351 802.741C436.155 804.357 437.71 806.119 439.031 808.012L431.65 813.164C430.729 811.844 429.638 810.602 428.349 809.447L427.74 808.91C426.322 807.674 424.909 806.556 423.502 805.549L428.738 798.231ZM1045.91 796.229C1044.03 797.594 1042.36 798.905 1040.89 800.144L1040.89 800.147C1039.46 801.351 1037.94 802.431 1036.36 803.404L1031.64 795.742L1031.64 795.739C1032.74 795.058 1033.78 794.338 1034.72 793.569L1035.08 793.271C1036.74 791.87 1038.59 790.425 1040.62 788.952L1045.91 796.229ZM389.921 798.809C386.092 799.733 382.206 801.169 378.294 803.089L374.329 795.01C378.761 792.835 383.267 791.157 387.811 790.061L389.921 798.809ZM1195.94 787.07C1196.65 791.965 1196.58 796.74 1195.82 801.374L1186.94 799.918C1187.55 796.183 1187.61 792.337 1187.03 788.368L1195.94 787.07ZM402.062 788.624C406.752 788.833 411.44 789.745 416.084 791.451L412.981 799.899C409.217 798.516 405.441 797.783 401.66 797.614L402.062 788.624ZM1064.75 774.357L1068.89 782.352C1064.67 784.53 1060.7 786.742 1057.04 788.935L1052.41 781.214C1056.24 778.918 1060.38 776.615 1064.75 774.356L1064.75 774.357ZM1184.45 761.205C1186.03 762.888 1187.44 764.772 1188.65 766.872C1189.89 769.028 1190.98 771.169 1191.91 773.292L1187.79 775.101L1187.79 775.1L1183.67 776.91C1182.87 775.099 1181.94 773.251 1180.85 771.365C1179.99 769.865 1179 768.54 1177.89 767.367L1184.45 761.205ZM1093.74 771.152C1089.45 772.816 1085.24 774.587 1081.15 776.428L1077.46 768.223C1081.69 766.318 1086.04 764.486 1090.48 762.763L1093.74 771.152ZM1918.65 771.884C1913.85 773.975 1908.87 775.045 1903.94 775.226L1903.61 766.234C1907.46 766.093 1911.33 765.261 1915.06 763.635L1918.65 771.884ZM1881.02 758.908C1884.26 761.358 1887.92 763.275 1891.78 764.536L1890.38 768.812L1890.38 768.813L1888.99 773.089C1884.16 771.515 1879.62 769.13 1875.59 766.083L1881.02 758.908ZM2188.43 766.138C2185.31 767.497 2182.38 768.564 2179.66 769.252L2178.6 769.506C2176.41 770.007 2174.27 770.331 2172.17 770.499L2171.45 761.53C2173.38 761.377 2175.38 761.051 2177.45 760.526L2178.26 760.311C2180.17 759.771 2182.36 758.968 2184.83 757.89L2188.43 766.138ZM2149.55 754.744C2152.6 757.217 2156.06 759.115 2159.84 760.286L2157.17 768.88C2152.24 767.353 2147.77 764.888 2143.88 761.735L2149.55 754.744ZM1119.53 762.814C1115.23 763.904 1110.88 765.169 1106.54 766.579L1103.76 758.02C1108.28 756.554 1112.81 755.232 1117.32 754.09L1119.53 762.814ZM1941.03 751.291C1939.47 753.679 1937.91 755.9 1936.34 757.891L1935.6 758.808C1934.19 760.52 1932.72 762.082 1931.21 763.506L1925.04 756.962C1926.48 755.598 1927.9 754.055 1929.27 752.317C1930.64 750.589 1932.04 748.6 1933.5 746.371L1941.03 751.291ZM1159.21 749.962C1164.15 750.545 1168.74 751.651 1172.86 753.361L1169.41 761.671C1166.2 760.339 1162.45 759.405 1158.16 758.899L1159.21 749.962ZM1145.61 758.578C1141.46 758.794 1137.11 759.294 1132.6 760.047L1131.12 751.17C1135.91 750.369 1140.61 749.829 1145.14 749.592L1145.61 758.578ZM2215.27 745.351C2215.58 746.019 2215.75 746.714 2215.79 747.406L2209.99 747.793L2214.56 751.387C2214.13 751.934 2213.6 752.413 2212.97 752.792L2212.97 752.794L2212.94 752.761L2212.95 752.787L2212.96 752.798L2212.96 752.801C2210.23 754.442 2207.55 756.029 2204.94 757.536L2200.44 749.745C2202.22 748.715 2204.05 747.64 2205.91 746.53L2204.58 743.642L2212.76 739.888L2215.27 745.351ZM1868.36 739.339C1869.13 743.213 1870.66 746.854 1872.81 750.146L1865.27 755.056C1862.53 750.859 1860.54 746.158 1859.53 741.1L1868.36 739.339ZM2137.2 734.387C2138.05 738.359 2139.58 742.191 2141.68 745.665L2133.98 750.323C2131.37 746.002 2129.47 741.237 2128.4 736.279L2137.2 734.387ZM1410.99 746.36C1408.31 747.313 1405.72 748.132 1403.26 748.761C1400.7 749.416 1398.2 749.86 1395.78 750.115L1394.84 741.167C1396.82 740.959 1398.88 740.592 1401.03 740.043L1401.84 739.829C1403.74 739.312 1405.8 738.659 1407.99 737.881L1410.99 746.36ZM1372.18 735.542C1375.33 737.766 1378.9 739.45 1382.86 740.422L1380.79 748.832L1380.71 749.159C1375.62 747.908 1371.02 745.741 1366.99 742.89L1372.18 735.542ZM1434.18 723.912L1436.44 729.481C1436.73 730.197 1436.87 730.938 1436.87 731.668L1432.37 731.678L1432.37 731.677L1431.02 731.68L1435.24 735.73C1434.74 736.256 1434.13 736.696 1433.42 737.011C1430.93 738.124 1428.45 739.224 1426.01 740.291L1422.41 732.047C1423.91 731.392 1425.42 730.72 1426.95 730.039L1425.84 727.296L1434.18 723.912ZM1945.87 719.384L1951.04 722.441C1951.71 722.834 1952.27 723.339 1952.71 723.919L1948.07 727.463L1948.07 727.464L1948.07 727.472L1948.06 727.469L1948.06 727.471L1948.07 727.472L1948.07 727.464L1948.09 727.475L1953.87 728.135C1953.79 728.861 1953.57 729.582 1953.2 730.261L1951.08 734.144C1950.48 735.225 1949.89 736.297 1949.3 737.36L1941.43 732.986C1942.23 731.557 1943.03 730.105 1943.83 728.634L1941.29 727.133L1945.87 719.384ZM2245.65 723.569C2246.67 723.051 2247.69 722.542 2248.72 722.042L2252.67 730.13C2250.73 731.075 2248.79 732.058 2246.86 733.071L2246.58 733.208C2246.31 733.333 2246.04 733.436 2245.76 733.518L2244.18 728.219L2243.42 733.699C2243.04 733.646 2242.65 733.554 2242.27 733.422C2241.89 733.289 2241.53 733.125 2241.19 732.933L2243.43 729.031L2243.95 728.118L2243.1 728.732L2243.1 728.733L2239.44 731.356C2239.22 731.043 2239.02 730.702 2238.85 730.332L2235.26 722.502L2243.44 718.749L2245.65 723.569ZM2202.74 718.039L2207.75 728.964L2199.57 732.717L2194.56 721.793L2202.74 718.039ZM1358.67 716.021C1359.76 719.933 1361.5 723.673 1363.8 727.017L1356.52 732.041L1356.4 732.124C1353.52 727.949 1351.35 723.297 1350 718.432L1358.67 716.021ZM1873.32 714.723C1871.8 717.407 1870.69 719.754 1869.94 721.784L1869.94 721.787C1869.2 723.798 1868.67 725.756 1868.32 727.652L1859.47 726.014C1859.86 723.943 1860.4 721.842 1861.13 719.719L1861.49 718.691C1862.45 716.06 1863.82 713.252 1865.49 710.293L1873.32 714.723ZM2277.61 716.892C2278.55 718.031 2279.2 719.373 2279.5 720.794C2276.8 721.465 2274.16 722.016 2271.57 722.431C2271.26 722.481 2270.98 722.541 2270.68 722.641L2270.69 722.651C2267.9 723.569 2265.08 724.627 2262.25 725.796C2261.64 724.151 2261.51 722.336 2261.92 720.573C2262.03 720.106 2262.18 719.653 2262.36 719.217L2261.29 716.482C2263.31 715.689 2265.34 714.948 2267.38 714.268C2267.53 714.209 2267.68 714.154 2267.83 714.103C2268.05 714.032 2268.26 713.967 2268.47 713.908L2270.87 722.455L2271.27 722.055L2269.66 713.63C2269.83 713.597 2269.99 713.569 2270.14 713.546L2270.14 713.545C2272.2 713.214 2274.32 712.788 2276.5 712.265L2277.61 716.892ZM1469.69 713.749C1470.35 713.605 1471 713.468 1471.66 713.342L1473.35 722.182V722.184C1472 722.443 1470.61 722.753 1469.21 723.111L1468.94 723.172C1468.33 723.297 1467.72 723.322 1467.13 723.257L1467.76 717.493L1463.48 721.402C1463.08 720.963 1462.74 720.457 1462.48 719.892L1462.37 719.641L1459.13 711.658L1467.47 708.273L1469.69 713.749ZM1521.18 722.086C1516.28 722.461 1511.55 722.676 1507.08 722.738L1506.96 713.741C1511.22 713.682 1515.77 713.475 1520.5 713.113L1521.18 722.086ZM2270.87 722.459L2270.87 722.466L2271.27 722.067L2271.27 722.059L2270.87 722.459ZM2140.5 711.324C2138.5 714.87 2137.27 718.628 2136.73 722.446L2127.82 721.189C2128.51 716.297 2130.09 711.46 2132.66 706.899L2140.5 711.324ZM1481.76 712.297C1483.39 712.296 1485.01 712.387 1486.63 712.593L1487.32 712.689L1487.33 712.69C1489.23 712.974 1491.34 713.207 1493.66 713.382L1492.98 722.355C1490.48 722.166 1488.15 721.912 1486 721.591C1484.65 721.391 1483.24 721.299 1481.77 721.3V721.002L1481.76 712.297ZM1925.17 707.158L1935.52 713.27L1930.94 721.02L1920.59 714.907L1925.17 707.158ZM1549.11 718.176L1549.16 718.43C1544.48 719.294 1539.81 720.026 1535.21 720.628L1534.05 711.705C1538.49 711.123 1543 710.416 1547.52 709.582L1549.11 718.176ZM2305.56 711.142C2301.14 713.278 2296.71 715.173 2292.33 716.794L2289.21 708.357C2293.3 706.841 2297.47 705.061 2301.65 703.04L2305.56 711.142ZM1425.14 701.635L1429.66 712.772L1421.32 716.158L1416.8 705.019L1425.14 701.635ZM1576.55 711.703C1572.12 713.1 1567.56 714.359 1562.95 715.483L1560.82 706.741C1565.25 705.659 1569.62 704.452 1573.85 703.12L1576.55 711.703ZM2197.72 707.114L2193.63 708.991L2193.63 708.99L2189.54 710.867L2184.53 699.942L2192.71 696.188L2197.72 707.114ZM1904.46 694.931L1914.82 701.044L1910.24 708.794L1899.89 702.68L1904.46 694.931ZM1602.58 700.91C1598.6 703.089 1594.32 705.096 1589.82 706.935L1586.42 698.607C1590.65 696.877 1594.62 695.013 1598.26 693.019L1602.58 700.91ZM2236.25 703.089L2228.07 706.841L2220.89 691.181L2229.07 687.428L2236.25 703.089ZM2330.11 696.258L2330.33 696.576C2326.38 699.34 2322.34 701.941 2318.24 704.354L2313.68 696.601C2317.57 694.308 2321.42 691.834 2325.17 689.205L2330.11 696.258ZM1360.47 692.782C1358.73 696.332 1357.74 700.154 1357.45 704.072L1348.48 703.403C1348.85 698.408 1350.12 693.464 1352.38 688.83L1360.47 692.782ZM2159.57 694.764C2157.21 695.981 2155.09 697.173 2153.23 698.35L2153.23 698.352C2151.36 699.54 2149.67 700.792 2148.17 702.09L2142.29 695.273C2143.87 693.918 2145.57 692.621 2147.42 691.393L2148.41 690.752C2150.55 689.393 2152.92 688.069 2155.46 686.763L2159.57 694.764ZM761.144 697.409C758.455 698.362 755.868 699.182 753.411 699.811L752.267 700.091C750.106 700.596 747.991 700.948 745.926 701.165L744.988 692.216C746.966 692.009 749.03 691.642 751.178 691.092L751.985 690.88C753.891 690.362 755.944 689.708 758.139 688.93L761.144 697.409ZM722.329 686.59C725.478 688.816 729.055 690.498 733.01 691.471L731.934 695.84L731.935 695.841L731.012 699.592L730.859 700.208C725.774 698.956 721.171 696.79 717.137 693.939L722.329 686.59ZM1881.3 687.281C1883.1 684.891 1886.36 684.241 1888.94 685.761L1894.12 688.817L1889.54 696.567L1886.79 694.943C1885.5 696.678 1884.24 698.377 1883.04 700.041L1875.75 694.758C1877.52 692.319 1879.38 689.819 1881.29 687.271L1881.3 687.281ZM1967.89 689.76C1968.32 689.247 1968.76 688.741 1969.21 688.244L1975.92 694.243L1975.92 694.244C1975 695.27 1974.09 696.355 1973.19 697.491C1972.74 698.056 1972.21 698.517 1971.63 698.87L1968.63 693.917L1968.4 695.187L1968.4 695.188L1967.6 699.617C1967.02 699.512 1966.44 699.315 1965.89 699.024L1965.65 698.891L1958.23 694.509L1962.81 686.76L1967.89 689.76ZM1460.99 692.308L1452.65 695.693L1446.17 679.728L1454.51 676.343L1460.99 692.308ZM1416.1 679.358L1420.62 690.496L1416.45 692.189L1416.45 692.188L1412.28 693.88L1407.76 682.743L1416.1 679.358ZM1624.18 683.133C1621.58 686.752 1618.26 690.104 1614.36 693.2L1608.76 686.152C1612.15 683.466 1614.85 680.697 1616.88 677.88L1624.18 683.133ZM784.33 674.962L786.591 680.531L786.695 680.805C786.916 681.435 787.022 682.081 787.023 682.717L781.186 682.734L785.395 686.78C784.889 687.306 784.276 687.746 783.57 688.061C781.078 689.174 778.602 690.274 776.162 691.34L772.561 683.095C774.059 682.441 775.572 681.769 777.104 681.088L775.991 678.345L784.33 674.962ZM2177.63 676.841C2180.53 675.632 2183.87 676.941 2185.19 679.801L2187.7 685.263L2179.52 689.017L2178.28 686.326C2176.74 686.975 2175.21 687.619 2173.7 688.262L2170.17 679.988C2172.62 678.941 2175.11 677.893 2177.63 676.841ZM1991.62 682.477C1989.52 683.841 1987.51 685.055 1985.61 686.101L1985.2 686.331C1984.15 686.94 1983.1 687.645 1982.07 688.433L1982.07 688.431L1976.61 681.282C1978.08 680.156 1979.63 679.122 1981.26 678.22L1981.27 678.216C1982.95 677.291 1984.77 676.194 1986.72 674.93L1991.62 682.477ZM2352.45 678.235C2349.07 681.569 2345.49 684.786 2341.77 687.866L2336.04 680.933C2339.57 678.013 2342.95 674.969 2346.13 671.829L2352.45 678.235ZM1947.98 677.998L1943.4 685.748L1928.56 676.985L1933.14 669.236L1947.98 677.998ZM1379.35 676.224C1376.51 677.438 1374.19 678.624 1372.37 679.788C1370.57 680.94 1368.96 682.176 1367.53 683.47L1361.49 676.8C1363.3 675.159 1365.31 673.619 1367.53 672.202C1369.89 670.695 1372.68 669.289 1375.81 667.951L1379.35 676.224ZM708.819 667.069C709.908 670.981 711.649 674.721 713.955 678.065L706.547 683.172C703.668 678.997 701.503 674.345 700.149 669.48L708.819 667.069ZM2215.78 657.957L2221.06 665.25C2220.52 665.638 2219.97 666.02 2219.42 666.397L2221.88 671.768L2213.7 675.521L2210.11 667.691C2209.81 667.037 2209.64 666.355 2209.58 665.674L2215.37 665.238L2210.74 661.745C2211.15 661.201 2211.66 660.72 2212.27 660.332C2213.49 659.555 2214.67 658.761 2215.78 657.954L2215.78 657.957ZM819.823 664.81C820.481 664.666 821.137 664.529 821.792 664.404L823.486 673.243V673.245C822.134 673.504 820.754 673.814 819.351 674.172L819.084 674.232C818.473 674.357 817.863 674.382 817.271 674.318L817.896 668.547L813.613 672.464C813.212 672.024 812.872 671.517 812.61 670.952L812.501 670.701L809.261 662.717L817.601 659.334L819.823 664.81ZM2007.89 658.439L2013.88 665.156C2010.21 668.429 2006.58 671.47 2003.07 674.229L1997.51 667.151C2000.87 664.516 2004.35 661.595 2007.89 658.439ZM871.313 673.145C866.409 673.52 861.678 673.736 857.21 673.797L857.087 664.8C861.355 664.741 865.898 664.534 870.628 664.172L871.313 673.145ZM831.896 663.358C833.517 663.356 835.143 663.447 836.76 663.653L837.452 663.749L837.461 663.75C839.36 664.033 841.475 664.267 843.789 664.442L843.108 673.415C840.612 673.225 838.277 672.972 836.131 672.651C834.779 672.45 833.369 672.359 831.906 672.361V672.358L831.896 663.358ZM899.288 669.49C894.612 670.354 889.943 671.085 885.345 671.686L884.179 662.764C888.624 662.183 893.138 661.476 897.654 660.641L899.288 669.49ZM1402.33 659.221C1405.21 658.422 1408.2 659.881 1409.32 662.651L1411.58 668.219L1403.24 671.604L1402.05 668.669C1399.97 669.262 1397.95 669.851 1395.98 670.441L1393.39 661.823C1396.28 660.956 1399.27 660.096 1402.34 659.231L1402.33 659.221ZM1629.91 656.167C1630.23 658.463 1630.43 660.854 1630.51 663.341C1630.59 665.763 1630.38 668.104 1629.92 670.367L1621.1 668.575C1621.42 666.997 1621.57 665.349 1621.52 663.618L1621.51 663.615C1621.45 661.44 1621.27 659.376 1621 657.419L1629.91 656.167ZM1907.95 650.11L1915.59 654.872C1914.98 655.844 1914.36 656.812 1913.74 657.777L1918.31 660.473L1913.73 668.222L1906.31 663.841C1905.96 663.635 1905.64 663.402 1905.35 663.146L1909.04 658.976L1903.96 661.245C1903.8 660.892 1903.67 660.518 1903.58 660.122C1903.49 659.724 1903.44 659.331 1903.43 658.944L1909.03 658.781L1903.86 656.626C1903.97 656.36 1904.1 656.098 1904.26 655.842L1904.42 655.582C1905.63 653.763 1906.81 651.937 1907.95 650.109L1907.95 650.11ZM2370.64 656.029C2368.14 659.981 2365.3 663.862 2362.17 667.642L2355.24 661.913C2358.14 658.394 2360.76 654.817 2363.04 651.214L2370.64 656.029ZM775.29 652.685L779.811 663.822L771.472 667.208L766.951 656.069L775.29 652.685ZM923.979 654.178L926.684 662.762C922.249 664.159 917.695 665.417 913.086 666.542L910.954 657.799C915.388 656.718 919.75 655.511 923.979 654.178ZM1446.07 645.855L1449.26 654.271C1448.19 654.677 1447.11 655.072 1446.03 655.463L1448.03 660.379L1439.69 663.763L1436.45 655.781C1436.3 655.403 1436.18 655.024 1436.11 654.645L1441.56 653.577L1436.16 652.292C1436.25 651.916 1436.37 651.542 1436.54 651.172C1436.71 650.801 1436.91 650.458 1437.13 650.144L1441.65 653.363L1438.87 648.559C1439.12 648.415 1439.38 648.288 1439.66 648.177L1439.95 648.071C1442.01 647.357 1444.05 646.618 1446.07 645.854L1446.07 645.855ZM2229.11 643.546L2236.11 649.2C2234.65 651.005 2233.37 652.705 2232.28 654.282C2231.21 655.816 2230.02 657.255 2228.75 658.605L2222.2 652.431L2222.2 652.428C2223.2 651.363 2224.1 650.273 2224.88 649.151C2226.12 647.368 2227.53 645.492 2229.1 643.545L2229.11 643.546ZM952.715 651.968C948.737 654.148 944.457 656.155 939.956 657.995L936.552 649.666C940.785 647.936 944.752 646.071 948.391 644.078L952.715 651.968ZM2033.91 645.283C2030.71 648.806 2027.44 652.219 2024.15 655.486L2017.81 649.101C2021 645.943 2024.15 642.643 2027.24 639.24L2033.91 645.283ZM702.531 639.879L710.617 643.831C708.882 647.38 707.891 651.202 707.6 655.12L698.626 654.451C698.997 649.466 700.261 644.531 702.518 639.906L702.531 639.879ZM1464.07 637.741L1468.57 645.539C1468.38 645.65 1468.19 645.751 1468.01 645.844C1467.96 645.867 1467.92 645.888 1467.88 645.91C1465.93 646.962 1463.94 647.968 1461.91 648.927L1458.06 640.795L1458.06 640.793C1460.04 639.85 1461.98 638.872 1463.86 637.851H1463.86V637.856L1463.87 637.865V637.851H1463.87L1464.07 637.74L1464.07 637.741ZM811.12 643.369L802.78 646.754L796.301 630.788L804.641 627.404L811.12 643.369ZM1618.48 630.219C1621.56 633.762 1624.13 637.787 1626.1 642.327L1621.97 644.115L1621.97 644.114L1617.84 645.902C1616.25 642.222 1614.17 638.981 1611.69 636.127L1618.48 630.219ZM766.25 630.408L770.771 641.546L766.602 643.239L766.601 643.238L762.432 644.93L757.911 633.793L766.25 630.408ZM1475.42 640.734C1473.55 641.961 1471.78 643.212 1470.13 644.482L1470.13 644.48C1470.01 644.573 1469.89 644.67 1469.76 644.765L1464.46 637.491L1464.46 637.49C1464.52 637.446 1464.58 637.401 1464.64 637.351C1466.48 635.932 1468.44 634.549 1470.49 633.206L1475.42 640.734ZM974.317 634.193C971.715 637.811 968.391 641.163 964.49 644.258L958.897 637.211C962.282 634.525 964.987 631.756 967.013 628.939L974.317 634.193ZM2381.56 629.613C2380.72 634.21 2379.29 638.802 2377.36 643.346L2377.34 643.339L2369.08 639.832C2370.78 635.82 2372 631.861 2372.71 627.987L2381.56 629.613ZM1919.99 624.381C1920.81 624.645 1921.6 625.029 1922.35 625.54C1922.83 625.875 1923.27 626.252 1923.67 626.661L1928.16 628.244C1927.42 630.355 1926.77 632.42 1926.23 634.43C1926.22 634.487 1926.2 634.544 1926.18 634.6C1926.16 634.694 1926.12 634.821 1926.08 634.961L1926.02 634.941C1925.93 635.335 1925.81 635.726 1925.67 636.112L1925.67 636.114C1925.66 636.149 1925.64 636.183 1925.63 636.218C1925.57 636.356 1925.52 636.493 1925.46 636.629C1924.51 638.746 1923.49 640.85 1922.41 642.939L1919.79 641.588C1917.65 642.222 1915.3 642.05 1913.24 641.027C1914.69 638.334 1916.04 635.641 1917.24 632.952L1917.23 632.962C1917.37 632.662 1917.45 632.401 1917.54 632.091C1918.22 629.564 1919.04 626.99 1919.99 624.381ZM2248.63 623.192L2254.7 629.841C2251.19 633.038 2247.93 636.205 2244.96 639.272L2238.49 633.013C2241.33 630.074 2244.42 627.063 2247.71 624.033L2248.63 623.192ZM2051.6 623.319C2048.93 627.119 2046.07 630.881 2043.09 634.571L2036.09 628.915C2038.96 625.366 2041.69 621.76 2044.25 618.135L2051.6 623.319ZM729.497 627.275C726.661 628.488 724.345 629.675 722.521 630.839L722.521 630.839C720.715 631.991 719.105 633.226 717.676 634.52L711.636 627.849C713.197 626.436 714.905 625.097 716.768 623.848L717.681 623.252C720.042 621.745 722.829 620.34 725.956 619.002L729.497 627.275ZM1499.38 628.746C1495.04 630.409 1490.88 632.223 1486.98 634.162L1482.98 626.1C1487.16 624.028 1491.57 622.101 1496.16 620.342L1499.38 628.746ZM1594.73 614.537C1599.36 616.247 1603.69 618.353 1607.61 620.888L1602.73 628.449C1599.42 626.312 1595.7 624.487 1591.62 622.977L1594.73 614.537ZM1525.57 621.107C1521.09 622.038 1516.65 623.143 1512.31 624.406L1509.79 615.765C1514.36 614.437 1519.03 613.275 1523.74 612.296L1525.57 621.107ZM752.48 610.271C755.36 609.461 758.341 610.931 759.471 613.701L761.73 619.269L753.392 622.654L752.2 619.717C750.122 620.311 748.098 620.901 746.131 621.492L743.542 612.875C746.43 612.008 749.422 611.146 752.49 610.281L752.48 610.271ZM980.047 607.226C980.37 609.522 980.574 611.913 980.65 614.401C980.724 616.823 980.518 619.164 980.058 621.426L971.24 619.632C971.561 618.055 971.708 616.408 971.655 614.676L971.625 613.866C971.543 611.987 971.378 610.192 971.137 608.479L980.047 607.226ZM2275.79 612.585C2272.09 615.301 2268.48 618.103 2265.01 620.941L2259.31 613.974C2262.9 611.039 2266.63 608.14 2270.47 605.328L2275.79 612.585ZM1566.63 608.942C1571.53 609.259 1576.3 609.85 1580.9 610.735L1579.19 619.57C1575 618.763 1570.61 618.217 1566.05 617.922L1566.63 608.942ZM1552.59 617.756C1548.12 617.922 1543.59 618.296 1539.04 618.865L1537.93 609.936C1542.72 609.336 1547.51 608.939 1552.26 608.763L1552.59 617.756ZM2378.62 601.458C2380.58 606.001 2381.75 610.632 2382.21 615.304L2373.26 616.201C2372.88 612.435 2371.94 608.705 2370.36 605.022L2378.62 601.458ZM1939.94 604.177C1937.5 608.133 1935.29 612.095 1933.36 616.006L1925.29 612.023C1927.36 607.841 1929.7 603.631 1932.28 599.449L1939.94 604.177ZM796.213 596.917L799.4 605.333C798.327 605.739 797.249 606.137 796.167 606.528L798.16 611.439L789.82 614.824L786.581 606.841C786.429 606.463 786.316 606.084 786.242 605.705L791.695 604.644L786.292 603.35C786.382 602.975 786.511 602.601 786.681 602.231C786.85 601.861 787.047 601.518 787.271 601.204L791.789 604.424L789.012 599.62C789.346 599.427 789.706 599.264 790.091 599.131C792.153 598.417 794.196 597.679 796.212 596.916L796.213 596.917ZM2065.75 598.951C2063.91 603.095 2061.73 607.287 2059.27 611.479L2058.83 611.227L2051.51 606.922C2053.82 602.98 2055.85 599.091 2057.53 595.299L2065.75 598.951ZM2298.54 597.845C2294.67 600.012 2290.8 602.36 2286.97 604.847L2282.07 597.301C2286.05 594.716 2290.08 592.263 2294.14 589.992L2298.54 597.845ZM821.393 583.763C822.254 584.997 822.768 586.391 822.942 587.815L825.549 591.794C823.676 593.021 821.911 594.272 820.262 595.542L820.26 595.539C820.144 595.629 820.027 595.723 819.902 595.814L816.56 591.248L814.593 589.46L818.824 596.528C818.659 596.627 818.499 596.718 818.349 596.801C818.224 596.87 818.099 596.936 817.973 596.998C816.042 598.04 814.067 599.036 812.06 599.988L810.801 597.332C809.322 596.77 807.978 595.815 806.938 594.5C806.541 593.996 806.206 593.46 805.931 592.904C808.721 591.644 811.424 590.318 814.011 588.911L814.001 588.922C814.291 588.762 814.521 588.611 814.771 588.411C816.844 586.814 819.058 585.264 821.393 583.763ZM968.614 581.28C971.697 584.822 974.267 588.847 976.233 593.386L967.977 596.964C966.383 593.283 964.31 590.043 961.825 587.188L968.614 581.28ZM2360.82 579.456C2362.78 580.671 2364.63 582.128 2366.34 583.841C2368.1 585.601 2369.7 587.388 2371.15 589.196L2364.13 594.829C2362.9 593.286 2361.51 591.743 2359.98 590.204C2358.75 588.978 2357.45 587.956 2356.08 587.108L2360.82 579.456ZM1956.13 582.215C1953.13 585.678 1950.27 589.249 1947.59 592.884L1940.34 587.54C1943.17 583.714 1946.17 579.959 1949.33 576.319L1956.13 582.215ZM2322.62 586.994C2318.68 588.277 2314.6 589.888 2310.44 591.784L2306.71 583.595C2311.13 581.579 2315.53 579.839 2319.84 578.436L2322.62 586.994ZM814.586 589.448L816.549 591.232L816.527 591.203L814.572 589.425L814.586 589.448ZM2072.15 571.717C2072.28 576.171 2071.67 580.852 2070.44 585.678L2061.72 583.467C2062.78 579.279 2063.25 575.438 2063.16 571.97L2072.15 571.717ZM849.511 579.804C845.169 581.468 841.014 583.281 837.106 585.219L833.107 577.159C837.286 575.086 841.701 573.16 846.291 571.401L849.511 579.804ZM2333.53 575.144C2338.45 574.425 2343.17 574.302 2347.59 574.886L2346.41 583.809C2342.97 583.354 2339.1 583.426 2334.83 584.049L2333.53 575.144ZM944.865 565.597C949.496 567.308 953.819 569.414 957.746 571.949L952.865 579.509C949.556 577.373 945.837 575.548 941.749 574.039L944.865 565.597ZM875.704 572.166C871.217 573.097 866.778 574.202 862.439 575.464L859.925 566.823C864.49 565.495 869.157 564.333 873.875 563.354L875.704 572.166ZM1975.58 563.166C1972.13 566.007 1968.75 569.054 1965.48 572.263L1959.18 565.841C1962.62 562.457 1966.19 559.233 1969.86 556.216L1975.58 563.166ZM916.767 560.003C921.66 560.32 926.434 560.91 931.028 561.796L929.326 570.63C925.137 569.823 920.739 569.277 916.185 568.982L916.767 560.003ZM902.721 568.816C898.253 568.981 893.72 569.355 889.174 569.923L888.058 560.996C892.851 560.396 897.645 559.998 902.389 559.823L902.721 568.816ZM2060.35 546.802C2062 548.432 2063.61 550.21 2065.18 552.141C2066.71 554.022 2067.97 556.007 2068.97 558.086L2060.87 562.007C2060.17 560.559 2059.29 559.16 2058.2 557.816C2056.82 556.127 2055.43 554.593 2054.03 553.204L2060.35 546.802ZM1997.83 548.47C1994.01 550.369 1990.18 552.603 1986.38 555.13L1981.4 547.638C1985.48 544.923 1989.63 542.496 1993.82 540.414L1997.83 548.47ZM2035.52 533.108C2040.12 534.055 2044.61 535.695 2048.92 538.112L2044.53 545.964C2041.03 544.005 2037.41 542.686 2033.71 541.922L2035.52 533.108ZM2021.93 541.253C2018 541.561 2013.94 542.366 2009.77 543.645L2007.13 535.044C2011.85 533.594 2016.56 532.646 2021.22 532.28L2021.93 541.253ZM2333.13 450.449C2328.26 451.837 2323.16 452.398 2318.11 452.12L2318.61 443.135C2322.66 443.359 2326.76 442.908 2330.67 441.796L2333.13 450.449ZM2297.17 433.98C2299.98 436.762 2303.28 438.926 2306.9 440.459L2305.14 444.601L2305.14 444.602L2303.39 448.744C2298.77 446.79 2294.5 444.002 2290.84 440.371L2297.17 433.98ZM2357.07 432.88C2354.25 437.296 2350.72 440.961 2346.73 443.869L2341.43 436.596C2344.55 434.327 2347.29 431.477 2349.48 428.043L2357.07 432.88ZM2287.54 410.791C2287.78 413.864 2288.16 416.437 2288.68 418.538L2288.88 419.31C2289.36 421.096 2289.94 422.759 2290.61 424.307L2286.49 426.098L2286.49 426.099L2282.36 427.89C2281.52 425.959 2280.8 423.911 2280.21 421.747L2279.94 420.691C2279.27 417.97 2278.83 414.881 2278.57 411.491L2287.54 410.791ZM2364.12 403.295C2364.17 406.148 2364.11 408.861 2363.92 411.391C2363.72 414.025 2363.34 416.533 2362.8 418.915L2354.03 416.934C2354.46 414.994 2354.78 412.919 2354.95 410.708C2355.11 408.517 2355.17 406.085 2355.13 403.424L2364.12 403.295ZM2290.83 386.66L2287.66 386.847C2287.56 389.013 2287.46 391.127 2287.39 393.185L2278.4 392.875C2278.5 389.863 2278.65 386.754 2278.81 383.571V383.568H2278.94L2278.85 383.563H2278.81V383.561C2278.85 382.828 2279.02 382.131 2279.3 381.496L2283.99 383.561H2284.5L2282.24 378.532C2282.79 378.283 2283.39 378.119 2284.02 378.053L2284.3 378.031L2290.3 377.675L2290.83 386.66ZM2356.3 373.771C2357.07 373.727 2357.82 373.835 2358.51 374.068L2356.64 379.588L2356.65 379.592L2356.68 379.589L2361.83 376.914C2362.17 377.561 2362.39 378.282 2362.46 379.051C2362.71 381.769 2362.96 384.467 2363.19 387.121L2354.22 387.888C2354.09 386.257 2353.93 384.607 2353.78 382.935L2350.83 383.11L2350.3 374.126L2356.3 373.771ZM2314.83 385.24L2302.83 385.95L2302.3 376.965L2314.3 376.256L2314.83 385.24ZM2338.83 383.82L2326.83 384.53L2326.3 375.546L2338.3 374.836L2338.83 383.82ZM2284.01 383.568H2284.5L2284.5 383.563H2284L2284.01 383.568ZM2289.16 337.546C2289.2 338.692 2289.23 339.841 2289.26 340.991L2294.55 340.678L2295.08 349.662L2286.48 350.172L2286.17 350.18C2285.88 350.183 2285.58 350.164 2285.3 350.125L2286.06 344.576L2285.47 345.508L2285.48 345.509L2283.29 348.997L2283.09 349.323C2282.84 349.17 2282.61 348.998 2282.38 348.805L2282.15 348.601C2281.85 348.322 2281.59 348.023 2281.37 347.71L2285.89 344.445L2281.03 345.427L2280.42 345.549C2280.34 345.171 2280.3 344.778 2280.3 344.371C2280.29 342.189 2280.24 340.017 2280.17 337.863L2289.16 337.546ZM2329.47 347.627L2312.28 348.644L2311.75 339.661L2328.94 338.643L2329.47 347.627ZM2352.28 335.277L2361.19 336.513C2361 337.878 2360.85 339.286 2360.74 340.731L2360.71 341.003C2360.64 341.621 2360.47 342.207 2360.22 342.748L2354.98 340.33L2357.3 345.613C2356.67 345.886 2355.99 346.057 2355.27 346.101L2346.67 346.609L2346.14 337.626L2352.03 337.277C2352.11 336.606 2352.19 335.939 2352.28 335.277ZM2359.37 314.455L2367.65 317.977C2366.67 320.281 2365.68 322.411 2364.69 324.341C2364.07 325.556 2363.53 326.863 2363.06 328.251H2363.06L2354.53 325.376C2355.12 323.619 2355.83 321.892 2356.68 320.229L2356.69 320.226C2357.56 318.519 2358.46 316.59 2359.37 314.455ZM2284.72 308.436C2285.21 310.333 2285.75 312.157 2286.33 313.903L2286.58 314.646L2286.6 314.715C2286.64 314.827 2286.68 314.966 2286.73 315.122L2286.67 315.138C2286.9 315.703 2287.06 316.295 2287.17 316.907C2287.56 319.193 2287.89 321.509 2288.17 323.843L2284.17 324.307L2284.67 324.804L2284.66 324.807L2284.16 324.308L2284.16 324.309L2284.66 324.812L2284.66 324.814C2283.23 326.236 2281.41 327.112 2279.49 327.37C2279.19 324.325 2278.8 321.342 2278.3 318.441L2278.29 318.451C2278.24 318.131 2278.16 317.861 2278.06 317.561C2277.21 315.086 2276.46 312.493 2275.78 309.801C2277.18 309.395 2278.67 309.325 2280.12 309.627L2280.36 309.565L2284.72 308.436ZM2376.44 291.174C2375.23 295.94 2373.91 300.491 2372.54 304.743L2363.98 301.975C2365.29 297.914 2366.55 293.544 2367.72 288.948L2376.44 291.174ZM2281.05 281.896C2281.23 286.542 2281.62 291.058 2282.2 295.382L2273.28 296.584C2272.66 291.961 2272.25 287.162 2272.05 282.25L2281.05 281.896ZM2548.9 270.581L2553.01 278.584C2548.43 280.942 2543.51 282.312 2538.53 282.786L2537.67 273.829C2541.59 273.457 2545.39 272.388 2548.9 270.581ZM2514.61 267.945C2518 270.182 2521.77 271.846 2525.7 272.854L2523.47 281.57C2518.58 280.316 2513.88 278.247 2509.65 275.455L2514.61 267.945ZM2381.95 263.505C2381.27 268.211 2380.46 272.868 2379.56 277.417L2370.73 275.662C2371.61 271.265 2372.39 266.763 2373.04 262.217L2381.95 263.505ZM2573.41 254.742C2572.14 257.893 2570.79 260.708 2569.33 263.101L2568.75 264.026C2567.54 265.914 2566.24 267.648 2564.85 269.237L2558.07 263.334C2559.33 261.878 2560.53 260.244 2561.65 258.415C2562.77 256.565 2563.91 254.226 2565.07 251.371L2573.41 254.742ZM2282.21 254.635C2281.65 259.185 2281.28 263.744 2281.08 268.258L2272.09 267.869L2272.09 267.868C2272.29 263.118 2272.69 258.325 2273.28 253.543L2282.21 254.635ZM2500.82 249.168C2501.87 253.102 2503.62 256.644 2505.91 259.747L2498.67 265.088C2495.74 261.112 2493.48 256.553 2492.12 251.494L2500.82 249.168ZM2384.36 235.399C2384.26 240.047 2383.99 244.764 2383.58 249.49L2374.62 248.709C2375.01 244.162 2375.27 239.644 2375.36 235.21L2384.36 235.399ZM2287.7 227.971C2286.42 232.256 2285.32 236.669 2284.4 241.158L2275.59 239.352C2276.56 234.619 2277.72 229.951 2279.07 225.402L2287.7 227.971ZM2502.84 223.989C2502.01 226.513 2501.33 228.85 2500.82 230.992C2500.32 233.151 2499.99 235.224 2499.83 237.207L2490.86 236.451C2491.07 234.018 2491.46 231.513 2492.06 228.941C2492.64 226.471 2493.4 223.868 2494.3 221.16L2502.84 223.989ZM2578.02 221.122C2580.82 222.192 2582.34 225.151 2581.58 228.051V228.042C2580.78 231.127 2579.98 234.135 2579.17 237.039L2570.51 234.63C2571.06 232.648 2571.6 230.608 2572.15 228.514L2569.19 227.382L2572.41 218.975L2578.02 221.122ZM2561.18 214.684L2557.96 223.09L2546.74 218.799L2549.95 210.392L2561.18 214.684ZM2382.48 207.283C2383.27 211.749 2383.8 216.447 2384.1 221.3L2375.12 221.854C2374.84 217.29 2374.34 212.934 2373.62 208.848L2382.48 207.283ZM2297.95 203.352C2295.84 207.061 2293.91 211.052 2292.17 215.271L2283.85 211.84C2285.72 207.308 2287.81 202.975 2290.12 198.907L2297.95 203.352ZM2527.49 201.809L2538.72 206.1L2535.51 214.507L2524.28 210.215L2527.49 201.809ZM2503.19 198.551C2504.42 195.651 2507.72 194.252 2510.65 195.372L2516.26 197.517L2513.05 205.924L2510.29 204.869C2509.64 206.415 2509 207.944 2508.38 209.457L2500.06 206.021C2501.07 203.56 2502.13 201.064 2503.19 198.551ZM2372.57 181.119C2375.17 184.744 2377.27 188.968 2378.96 193.655L2370.49 196.693C2369.03 192.626 2367.27 189.176 2365.25 186.353L2372.57 181.119ZM2585.59 181.043L2594.07 184.053C2593.35 186.085 2592.65 188.144 2591.98 190.221C2591.86 190.609 2591.7 190.972 2591.51 191.309L2586.65 188.618L2589.96 193.081C2589.65 193.31 2589.31 193.515 2588.94 193.691C2588.57 193.868 2588.2 194.003 2587.83 194.1L2586.43 188.734L2586.25 189.764L2586.25 189.765L2585.48 194.198C2585.1 194.132 2584.72 194.027 2584.34 193.882L2576.29 190.805L2579.51 182.398L2584.46 184.291C2584.83 183.204 2585.2 182.121 2585.59 181.043ZM2313.9 183.902C2310.82 186.352 2307.9 189.289 2305.16 192.677L2298.16 187.018C2301.27 183.18 2304.65 179.761 2308.31 176.854L2313.9 183.902ZM2563.41 176.246L2560.2 184.652L2544.1 178.5L2547.32 170.093L2563.41 176.246ZM2348.87 167.041C2351.15 167.471 2353.48 168.045 2355.86 168.771C2358.18 169.478 2360.33 170.423 2362.33 171.586L2357.8 179.362C2356.4 178.552 2354.89 177.885 2353.23 177.38C2351.15 176.746 2349.14 176.25 2347.2 175.883L2348.87 167.041ZM2335.28 175.184C2331.28 175.514 2327.55 176.438 2324.05 177.876L2320.63 169.551C2324.97 167.767 2329.61 166.622 2334.54 166.215L2335.28 175.184ZM2517.2 158.346L2526.08 159.859C2525.96 160.515 2525.84 161.173 2525.71 161.832L2531.22 163.94L2528.01 172.347L2519.96 169.271C2519.29 169.015 2518.69 168.648 2518.18 168.198L2522 163.846L2517.16 164.466L2516.25 164.581C2516.17 163.905 2516.2 163.203 2516.36 162.502C2516.69 161.091 2516.97 159.703 2517.2 158.345L2517.2 158.346ZM2594 161.416L2601.81 165.888C2601.77 165.953 2601.74 166.021 2601.7 166.091C2600.72 167.991 2599.78 169.949 2598.88 171.957L2590.67 168.273C2591.63 166.128 2592.64 164.019 2593.71 161.958L2593.71 161.957C2593.8 161.775 2593.9 161.595 2594 161.416ZM2606.22 159.382C2604.91 161.459 2603.57 163.439 2602.19 165.311L2602.06 165.499L2594.65 160.392C2594.74 160.25 2594.84 160.118 2594.92 160.001C2594.93 159.989 2594.94 159.979 2594.95 159.967C2596.19 158.292 2597.4 156.502 2598.59 154.604L2606.22 159.382ZM2525.59 137.865C2525.79 139.886 2526.02 141.753 2526.29 143.457L2526.41 144.177L2526.42 144.188C2526.73 146.029 2526.88 147.887 2526.92 149.74L2517.92 149.91H2517.92C2517.89 148.446 2517.77 147.038 2517.54 145.691C2517.18 143.551 2516.87 141.222 2516.63 138.729L2525.59 137.865ZM2618.55 133.45C2616.89 138.075 2615.05 142.528 2613.07 146.748L2604.92 142.915C2606.78 138.968 2608.51 134.778 2610.09 130.403L2618.55 133.45ZM2525.31 111.025C2525.04 115.762 2524.93 120.308 2524.96 124.577L2515.96 124.636C2515.93 120.168 2516.05 115.434 2516.32 110.523L2525.31 111.025ZM2626.04 105.707C2625.15 110.444 2624.09 115.133 2622.85 119.724L2614.16 117.387C2615.34 113.024 2616.35 108.564 2617.19 104.058L2626.04 105.707ZM2528.28 83.9313C2527.54 88.4644 2526.93 92.9912 2526.44 97.4479L2517.49 96.4635C2518 91.854 2518.64 87.1705 2519.4 82.4772L2528.28 83.9313ZM2628.99 77.1266C2628.91 81.8727 2628.61 86.6741 2628.11 91.4792L2619.16 90.5456C2619.63 85.9885 2619.92 81.4494 2619.99 76.9792L2628.99 77.1266ZM2534.21 57.4772C2532.96 61.7337 2531.84 66.1198 2530.85 70.5749L2522.07 68.6217C2523.1 63.9899 2524.26 59.4112 2525.57 54.9489L2534.21 57.4772ZM2626.43 48.5338C2627.41 53.1087 2628.1 57.87 2628.51 62.7555L2619.55 63.5211C2619.16 58.9742 2618.53 54.5882 2617.63 50.4167L2626.43 48.5338ZM2543.81 32.8629C2541.89 36.5415 2540.11 40.5475 2538.46 44.8151L2530.06 41.5807C2531.81 37.0429 2533.73 32.7222 2535.83 28.7008L2543.81 32.8629ZM2615.73 22.029C2618.35 25.9029 2620.54 30.182 2622.35 34.777L2618.16 36.4215L2618.16 36.4206L2613.97 38.0661C2612.38 34.0103 2610.48 30.3295 2608.28 27.0651L2615.73 22.029ZM2558.56 13.9342C2555.79 16.0172 2553.08 18.7785 2550.46 22.2174L2543.3 16.7682C2546.31 12.8053 2549.6 9.4126 2553.16 6.73697L2558.56 13.9342ZM2593.92 3.98599C2598.5 5.85854 2602.58 8.34653 2606.18 11.3551L2600.42 18.2643C2597.51 15.8393 2594.23 13.8342 2590.51 12.3161L2593.92 3.98599ZM2572.82 0.00161714C2575.31 0.0268831 2577.7 0.181062 2580 0.456695L2578.94 9.39224C2577.22 9.18651 2575.42 9.05803 2573.54 9.01431L2572.73 9.00064C2571 8.98319 2569.35 9.16395 2567.78 9.51724L2565.81 0.735992C2568.06 0.229384 2570.4 -0.0227889 2572.82 0.00161714Z" fill="white" style="fill:white;fill-opacity:1;"/>
</svg>
