<svg width="256" height="256" viewBox="0 0 256 256" fill="none" xmlns="http://www.w3.org/2000/svg">
<path fill-rule="evenodd" clip-rule="evenodd" d="M0 0H256V256H0V0Z" fill="#72AF59" style="fill:#72AF59;fill:color(display-p3 0.4471 0.6863 0.3490);fill-opacity:1;"/>
<path d="M49.2998 88.5L50.3691 96.6357L52.874 100.261L57.3047 105.069L77.5195 110.556L84.7969 109.568L91.1172 106.627L100.609 96.3232L100.822 96.0928L112.621 86.1289H117.688L127.627 90.1758L127.817 90.2539L128.001 90.3467L144.925 98.9199L167.244 109.824L192.264 119.272L217.173 120.502L228.299 125.031L234.335 133.223L234.538 134.331L239 138.588V150.771L229.281 162.63L217.022 168.613L216.47 168.884L215.868 169.011L189.932 174.515L189.539 174.599L160.57 176.013L133.133 173.223L133.066 173.216L133.001 173.207L112.118 170.524L81.9912 173.248H54.2695L29.4648 168.924L20.79 164.69L19.335 154.028L16.6621 142.615L20.5732 136.252L21.4072 117.241L26.1113 101.921L26.168 101.733L26.2402 101.552L33.9355 82.0576L44.9551 79.0664L49.2998 88.5ZM29.124 151.972L29.1777 152.202L29.209 152.436L29.9746 158.046L32.5771 159.315L55.1348 163.248H81.542L111.763 160.517L112.308 160.467L112.85 160.537L134.188 163.277L160.835 165.987L188.251 164.648L213.191 159.355L222.931 154.602L224.923 152.171L207.928 156.125L188.479 158.608L188.276 158.635L188.072 158.644L160.972 159.87L160.574 159.888L138.795 157.398L113.202 154.982L87.585 156.191L87.4678 156.197H46.0332L36.3564 153.571L36.0879 153.498L28.8076 150.624L29.124 151.972ZM35.6133 105.042L31.3408 118.958L30.3955 140.5L39.2422 143.992L47.3652 146.197H87.2383L113.085 144.978L113.438 144.96L139.762 147.445L139.811 147.45L139.859 147.456L160.917 149.861L187.415 148.663L206.156 146.27L220.652 142.896L225.286 139.304L225.2 138.836C224.909 138.254 224.739 137.627 224.689 136.991L221.919 133.231L214.979 130.406L190.203 129.184L163.278 119.017L140.484 107.881L140.452 107.865L140.42 107.849L123.659 99.3574L116.099 96.2793L107.75 103.33L97.1318 114.859L87.6436 119.273L76.8555 120.737L51.9023 113.966L45.2803 106.775L45.043 106.519L40.7705 100.334L39.9453 94.0664L35.6133 105.042Z" fill="white" style="fill:white;fill-opacity:1;"/>
</svg>
