<svg width="27" height="31" viewBox="0 0 27 31" xmlns="http://www.w3.org/2000/svg"><path d="M7.5 8.25V6.375C7.5 3.26953 9.96094 0.75 13.125 0.75C16.2305 0.75 18.75 3.26953 18.75 6.375V8.25H23.4375C24.9609 8.25 26.25 9.53906 26.25 11.0625V25.125C26.25 28.2305 23.7305 30.75 20.625 30.75H5.625C2.46094 30.75 0 28.2305 0 25.125V11.0625C0 9.53906 1.23047 8.25 2.8125 8.25H7.5ZM9.375 8.25H16.875V6.375C16.875 4.32422 15.1758 2.625 13.125 2.625C11.0156 2.625 9.375 4.32422 9.375 6.375V8.25ZM2.8125 10.125C2.28516 10.125 1.875 10.5938 1.875 11.0625V25.125C1.875 27.2344 3.51562 28.875 5.625 28.875H20.625C22.6758 28.875 24.375 27.2344 24.375 25.125V11.0625C24.375 10.5938 23.9062 10.125 23.4375 10.125H18.75V14.8125C18.75 15.3398 18.2812 15.75 17.8125 15.75C17.2852 15.75 16.875 15.3398 16.875 14.8125V10.125H9.375V14.8125C9.375 15.3398 8.90625 15.75 8.4375 15.75C7.91016 15.75 7.5 15.3398 7.5 14.8125V10.125H2.8125Z"/></svg>