<svg xmlns="http://www.w3.org/2000/svg" viewBox="0 0 2743.6 448"><g><path d="M1281.1,0H751.6c-22.4,0-40.7,18.3-40.7,40.7v366.5c0,22.4,18.3,40.7,40.7,40.7h529.5c22.4,0,40.7-18.3,40.7-40.7V40.7C1321.8,18.3,1303.5,0,1281.1,0z M1301.5,407.3c0,12.2-8.1,20.4-20.4,20.4H751.6c-12.2,0-20.4-8.1-20.4-20.4V40.7c0-12.2,8.1-20.4,20.4-20.4h529.5c12.2,0,20.4,8.1,20.4,20.4V407.3z"></path><path d="M867.7,209.7c2,2,2,2,4.1,2c2-2,2-4.1,2-6.1l-6.1-28.5l0,0c-2-8.1-10.2-8.1-14.3-10.2l0,0h-36.7c-2,0-4.1,2-4.1,2c0,2,0,4.1,2,4.1C837.2,183.3,855.5,193.5,867.7,209.7L867.7,209.7z"></path><path d="M1189.5,169h-22.4c-10.2,0-14.3,2-18.3,10.2L1099.9,281c0,2,0,2,0,4.1c0,0,2,2,4.1,2h28.5c2,0,2,0,4.1-2c4.1-8.1,6.1-14.3,6.1-14.3h20.4h24.4c0,4.1,2,12.2,4.1,14.3c0,2,2,2,4.1,2h24.4c2,0,2,0,2-2s0-2,0-2l-26.5-110C1193.5,171.1,1191.5,169,1189.5,169z M1150.8,244.4l18.3-42.8l2,10.2l8.1,32.6H1150.8L1150.8,244.4z"></path><path d="M951.2,171.1c0,0-2-2-4.1-2h-28.5c-2,0-2,0-4.1,2L882,248.4l-4.1-12.2l0,0c-6.1-10.2-18.3-28.5-38.7-42.8c-2,0-4.1,0-4.1,0s-2,2-2,4.1l26.5,85.5c0,2,2,2,4.1,2h30.5c2,0,2,0,4.1-2l50.9-107.9C953.2,173.1,951.2,171.1,951.2,171.1L951.2,171.1z"></path><path d="M998,169h-26.5c-2,0-4.1,2-4.1,2l-20.4,110v2l2,2h26.5c2,0,4.1-2,4.1-2l20.4-110c0-2,0-2,0-2C1000.1,169,998,169,998,169z"></path><path d="M1071.3,193.5L1071.3,193.5c12.2,0,18.3,2,22.4,4.1c2,0,2,0,4.1,0l2-2l4.1-16.3c0-2,0-4.1-2-4.1c-8.1-2-18.3-4.1-26.5-4.1c-32.6,0-55,14.3-55,36.7c0,16.3,16.3,24.4,28.5,30.5c12.2,6.1,16.3,8.1,16.3,14.3c0,8.1-10.2,10.2-20.4,10.2c-10.2,0-20.4-2-30.5-6.1c-2,0-2,0-4.1,0l-2,2l-4.1,18.3c0,2,0,4.1,2,4.1c8.1,2,22.4,4.1,34.6,4.1l0,0c34.6,0,57-14.3,57-38.7c0-12.2-8.1-22.4-28.5-30.5c-12.2-6.1-18.3-8.1-18.3-14.3C1053,197.5,1059.1,193.5,1071.3,193.5L1071.3,193.5z"></path></g><g><path d="M570.2,0H40.7C18.3,0,0,18.3,0,40.7v366.5C0,429.7,18.3,448,40.7,448h529.5c22.4,0,40.7-18.3,40.7-40.7V40.7C610.9,18.3,592.6,0,570.2,0z M590.5,407.3c0,12.2-8.1,20.4-20.4,20.4H40.7c-12.2,0-20.4-8.1-20.4-20.4V40.7c0-12.2,8.1-20.4,20.4-20.4h529.5c12.2,0,20.4,8.1,20.4,20.4V407.3z"></path><path d="M272.9,378.8c-4.1,0-6.1-2-6.1-6.1v-16.3H279v-8.1h-12.2V336h-8.1v12.2h-8.1v8.1h8.1v16.3c0,8.1,4.1,14.3,12.2,14.3c4.1,0,8.1-2,10.2-2l-2-6.1C279,378.8,276.9,378.8,272.9,378.8L272.9,378.8z"></path><path d="M307.5,348.2c-10.2,0-18.3,8.1-18.3,20.4c0,12.2,8.1,20.4,18.3,20.4c6.1,0,10.2-2,14.3-6.1l-4.1-6.1c-4.1,2-6.1,4.1-10.2,4.1c-6.1,0-10.2-2-10.2-8.1h28.5c0,0,0-2,0-4.1C323.8,356.4,317.7,348.2,307.5,348.2z M297.3,364.5c0-6.1,4.1-8.1,10.2-8.1c6.1,0,8.1,4.1,10.2,8.1C315.6,364.5,297.3,364.5,297.3,364.5z"></path><path d="M234.2,364.5h-4.1c-4.1,0-6.1-2-6.1-4.1s2-4.1,6.1-4.1s10.2,2,12.2,4.1l4.1-6.1c-4.1-2-10.2-4.1-14.3-4.1c-10.2,0-16.3,4.1-16.3,12.2c0,6.1,4.1,10.2,12.2,10.2h4.1c4.1,0,6.1,2,6.1,4.1s-2,4.1-8.1,4.1c-4.1,0-8.1-2-12.2-4.1l-4.1,6.1c4.1,4.1,10.2,4.1,16.3,4.1c10.2,0,16.3-4.1,16.3-12.2C246.4,368.6,242.3,364.5,234.2,364.5L234.2,364.5z"></path><path d="M197.5,354.3c-2-4.1-8.1-6.1-12.2-6.1c-10.2,0-18.3,8.1-18.3,20.4c0,12.2,8.1,20.4,18.3,20.4c4.1,0,8.1-2,12.2-6.1v4.1h8.1v-36.7h-8.1V354.3L197.5,354.3z M187.3,378.8c-6.1,0-12.2-6.1-12.2-12.2c0-6.1,4.1-12.2,12.2-12.2c6.1,0,10.2,6.1,10.2,12.2C199.6,374.7,193.5,378.8,187.3,378.8z"></path><path d="M146.6,348.2c-4.1,0-10.2,2-12.2,6.1c-2-4.1-8.1-6.1-12.2-6.1s-8.1,2-10.2,6.1v-4.1h-10.2v36.7h8.1v-20.4c0-6.1,4.1-10.2,8.1-10.2c6.1,0,8.1,4.1,8.1,10.2v20.4h8.1v-20.4c0-6.1,4.1-10.2,8.1-10.2c6.1,0,8.1,4.1,8.1,10.2v20.4h8.1v-22.4C160.9,354.3,154.8,348.2,146.6,348.2z"></path><path d="M340.1,354.3v-4.1h-8.1v36.7h8.1v-20.4c0-6.1,2-10.2,8.1-10.2c2,0,4.1,0,4.1,0l2-8.1c-2,0-4.1,0-6.1,0C346.2,348.2,342.1,350.3,340.1,354.3L340.1,354.3z"></path><path d="M500.9,354.3c-2-4.1-8.1-6.1-12.2-6.1c-10.2,0-18.3,8.1-18.3,20.4c0,12.2,8.1,20.4,18.3,20.4c4.1,0,8.1-2,12.2-6.1v4.1h8.1V334h-8.1V354.3z M490.8,378.8c-6.1,0-12.2-6.1-12.2-12.2c0-6.1,4.1-12.2,12.2-12.2c6.1,0,10.2,6.1,10.2,12.2C500.9,374.7,496.9,378.8,490.8,378.8z"></path><path d="M452.1,354.3v-4.1h-8.1v36.7h8.1v-20.4c0-6.1,2-10.2,8.1-10.2c2,0,4.1,0,4.1,0l2-8.1c-2,0-4.1,0-6.1,0C458.2,348.2,454.1,350.3,452.1,354.3z"></path><path d="M425.6,354.3c-2-4.1-8.1-6.1-12.2-6.1c-10.2,0-18.3,8.1-18.3,20.4c0,12.2,8.1,20.4,18.3,20.4c6.1,0,10.2-2,12.2-6.1v4.1h8.1v-36.7h-8.1V354.3L425.6,354.3z M415.4,378.8c-6.1,0-12.2-6.1-12.2-12.2c0-6.1,4.1-12.2,12.2-12.2c6.1,0,10.2,6.1,10.2,12.2C425.6,374.7,421.5,378.8,415.4,378.8z"></path><path d="M378.8,356.4c4.1,0,6.1,2,10.2,4.1l4.1-6.1c-4.1-4.1-8.1-4.1-14.3-4.1c-12.2,0-20.4,8.1-20.4,20.4s8.1,20.4,20.4,20.4c4.1,0,10.2-2,14.3-4.1l-6.1-10.2c-2,2-6.1,4.1-10.2,4.1c-6.1,0-10.2-4.1-10.2-12.2S370.6,356.4,378.8,356.4L378.8,356.4z"></path><path d="M386.9,61.1c-30.5,0-59.1,10.2-81.5,30.5c-22.4-20.4-50.9-30.5-81.5-30.5c-67.2,0-122.2,55-122.2,122.2s55,122.2,122.2,122.2c30.5,0,59.1-10.2,81.5-30.5c22.4,20.4,50.9,30.5,81.5,30.5c67.2,0,122.2-55,122.2-122.2S454.1,61.1,386.9,61.1z M305.5,244.4c-12.2-16.3-20.4-38.7-20.4-61.1s8.1-42.8,20.4-61.1c12.2,16.3,20.4,38.7,20.4,61.1S317.7,226,305.5,244.4z M122.2,183.3c0-57,44.8-101.8,101.8-101.8c24.4,0,48.9,10.2,67.2,26.5c-34.6,44.8-34.6,107.9,0,150.7c-18.3,16.3-42.8,26.5-67.2,26.5C167,285.1,122.2,240.3,122.2,183.3z M386.9,285.1c-24.4,0-48.9-10.2-67.2-26.5c34.6-44.8,34.6-107.9,0-150.7c18.3-16.3,42.8-26.5,67.2-26.5c57,0,101.8,44.8,101.8,101.8S443.9,285.1,386.9,285.1z"></path></g><g><path d="M1505.3,162.9h-22.4v79.4h22.4c12.2,0,20.4-2,28.5-8.1c8.1-8.1,14.3-18.3,14.3-30.5C1548.1,179.2,1529.7,162.9,1505.3,162.9z M1523.6,222c-4.1,4.1-10.2,6.1-20.4,6.1h-4.1v-52.9h4.1c10.2,0,16.3,2,20.4,6.1c6.1,4.1,8.1,12.2,8.1,20.4S1527.7,217.9,1523.6,222L1523.6,222z"></path><path d="M1554.2,162.9h16.3v79.4h-16.3V162.9z"></path><path d="M1607.1,193.5c-8.1-4.1-12.2-6.1-12.2-10.2s4.1-8.1,12.2-8.1c4.1,0,8.1,2,12.2,6.1l8.1-10.2c-6.1-6.1-14.3-8.1-22.4-8.1c-14.3,0-24.4,10.2-24.4,22.4c0,10.2,4.1,16.3,18.3,22.4c6.1,2,8.1,4.1,10.2,4.1c2,2,4.1,4.1,4.1,8.1c0,6.1-4.1,10.2-12.2,10.2c-8.1,0-12.2-4.1-16.3-10.2l-10.2,10.2c8.1,8.1,16.3,14.3,28.5,14.3c16.3,0,26.5-10.2,26.5-26.5C1629.5,205.7,1625.5,199.6,1607.1,193.5z"></path><path d="M1676.4,242.3c6.1,0,12.2-2,18.3-4.1v-18.3c-6.1,6.1-12.2,8.1-18.3,8.1c-16.3,0-26.5-12.2-26.5-26.5s12.2-26.5,26.5-26.5c8.1,0,12.2,2,18.3,8.1v-18.3c-6.1-4.1-12.2-4.1-18.3-4.1c-22.4,0-42.8,18.3-42.8,40.7C1633.6,226,1651.9,244.4,1676.4,242.3z"></path><path d="M1820.9,244.4l34.6-81.5h-16.3l-20.4,52.9l-20.4-52.9h-16.3l32.6,81.5H1820.9z"></path><path d="M1904.4,228.1h-28.5v-20.4h26.5v-14.3h-26.5v-18.3h28.5v-12.2h-42.8v79.4h42.8V228.1z"></path><path d="M1928.9,209.7L1928.9,209.7l22.4,32.6h20.4l-24.4-32.6c12.2-2,18.3-10.2,18.3-22.4c0-14.3-10.2-22.4-28.5-22.4h-22.4v79.4h16.3C1928.9,242.3,1928.9,209.7,1928.9,209.7z M1928.9,175.1h4.1c10.2,0,14.3,4.1,14.3,12.2c0,8.1-6.1,12.2-14.3,12.2h-4.1V175.1L1928.9,175.1z"></path><path d="M1992,0h-529.5c-22.4,0-40.7,18.3-40.7,40.7v366.5c0,22.4,18.3,40.7,40.7,40.7H1992c22.4,0,40.7-18.3,40.7-40.7V40.7C2032.7,18.3,2014.4,0,1992,0z M1442.2,407.3V40.7c0-12.2,8.1-20.4,20.4-20.4H1992c12.2,0,20.4,8.1,20.4,20.4v201.6c-46.8,38.7-175.1,132.4-370.6,185.3h-179.2C1450.3,427.6,1442.2,419.5,1442.2,407.3zM2012.4,407.3c0,12.2-8.1,20.4-20.4,20.4h-281c150.7-50.9,252.5-120.1,301.4-158.8V407.3z"></path><path d="M1741.5,244.4c22.4,0,40.7-18.3,40.7-42.8c0-22.4-18.3-42.8-40.7-42.8c-22.4,0-42.8,18.3-40.7,42.8l0,0C1700.8,226,1719.1,244.4,1741.5,244.4L1741.5,244.4z M1741.5,181.2c12.2,0,20.4,10.2,20.4,22.4c0,12.2-10.2,22.4-20.4,22.4c-10.2,0-20.4-10.2-20.4-22.4C1721.2,191.4,1729.3,181.2,1741.5,181.2z"></path></g><g><path d="M2702.9,0h-529.5c-22.4,0-40.7,18.3-40.7,40.7v366.5c0,22.4,18.3,40.7,40.7,40.7h529.5c22.4,0,40.7-18.3,40.7-40.7V40.7C2743.6,18.3,2725.3,0,2702.9,0z M2723.3,407.3c0,12.2-8.1,20.4-20.4,20.4h-529.5c-12.2,0-20.4-8.1-20.4-20.4V40.7c0-12.2,8.1-20.4,20.4-20.4h529.5c12.2,0,20.4,8.1,20.4,20.4V407.3z"></path><path d="M2438.2,199.6c-2,4.1-4.1,10.2-6.1,14.3c-8.1,18.3-16.3,36.7-24.4,55c-2,4.1-4.1,6.1-8.1,4.1c-4.1,0-8.1,0-14.3,0c-2,0-4.1,0-4.1-2c-10.2-22.4-20.4-44.8-30.5-67.2c0-2-2-2-2-4.1c0,2,0,2,0,4.1c0,22.4,0,42.8,0,65.2c0,4.1,0,4.1-4.1,4.1c-12.2,0-26.5,0-38.7,0c-2,0-4.1,0-6.1-4.1c-2-4.1-4.1-10.2-6.1-14.3c0-2-2-2-4.1-2c-14.3,0-28.5,0-44.8,0c-2,0-4.1,0-4.1,4.1c-2,2-4.1,8.1-6.1,12.2c0,2-2,4.1-4.1,4.1c-6.1,0-12.2,0-18.3,0c-2,0-4.1,0-2-4.1c12.2-30.5,26.5-61.1,38.7-91.6c0-2,2-4.1,4.1-4.1c8.1,0,18.3,0,26.5,0c2,0,4.1,0,6.1,4.1c12.2,26.5,24.4,55,34.6,81.5c0,2,2,4.1,2,6.1c0,0,0,0,2,0c0-2,0-4.1,0-6.1c0-26.5,0-52.9,0-79.4c0-6.1,0-6.1,6.1-6.1c10.2,0,20.4,0,30.5,0c2,0,4.1,0,6.1,4.1c8.1,20.4,18.3,38.7,26.5,59.1c0,2,2,2,2,4.1c4.1-8.1,6.1-14.3,8.1-20.4c6.1-14.3,12.2-28.5,18.3-42.8c2-2,2-4.1,6.1-4.1c10.2,0,20.4,0,30.5,0c2,0,4.1,0,4.1,4.1c0,30.5,0,61.1,0,89.6c0,2,0,4.1-4.1,4.1s-10.2,0-14.3,0c-4.1,0-4.1,0-4.1-4.1c0-18.3,0-34.6,0-52.9c0-4.1,0-8.1,0-12.2C2440.2,201.6,2440.2,199.6,2438.2,199.6C2440.2,199.6,2438.2,199.6,2438.2,199.6zM2283.4,230.1c-6.1-12.2-10.2-24.4-16.3-36.7c0,0,0,0-2,0c-4.1,12.2-10.2,24.4-16.3,36.7C2263.1,230.1,2273.2,230.1,2283.4,230.1z"></path><path d="M2666.3,270.8c-2,0-2,0-2,0c-8.1,0-14.3,0-22.4,0c-2,0-4.1-2-4.1-2c-8.1-8.1-16.3-18.3-24.4-26.5c-2-2-4.1-2-6.1,0c-8.1,8.1-16.3,18.3-24.4,26.5c-2,2-4.1,2-6.1,2c-28.5,0-57,0-85.5,0c-4.1,0-4.1-2-4.1-4.1c0-30.5,0-59.1,0-89.6c0-4.1,0-4.1,4.1-4.1c28.5,0,59.1,0,87.6,0c2,0,4.1,0,6.1,2c8.1,8.1,16.3,18.3,24.4,26.5l2,2c2-2,2-2,4.1-4.1c8.1-8.1,16.3-18.3,24.4-26.5c2-2,4.1-2,6.1-2c8.1,0,14.3,0,22.4,0c-2,2-2,2-2,4.1c-12.2,14.3-24.4,28.5-36.7,40.7c-2,2-2,4.1,0,8.1c12.2,14.3,24.4,26.5,36.7,40.7C2664.2,268.8,2664.2,270.8,2666.3,270.8z M2560.4,232.1c-2,0-2,0-4.1,0c-14.3,0-28.5,0-44.8,0c-2,0-4.1,0-4.1,4.1s0,8.1,0,14.3c0,2,0,4.1,4.1,4.1c16.3,0,34.6,0,50.9,0c2,0,4.1,0,4.1-2c8.1-8.1,16.3-16.3,24.4-24.4c2-2,2-2,0-4.1c-8.1-8.1-16.3-16.3-22.4-24.4c0,0-2-2-4.1-2c-18.3,0-36.7,0-55,0c-2,0-4.1,2-2,4.1c0,4.1,0,6.1,0,10.2s0,4.1,4.1,4.1c14.3,0,28.5,0,42.8,0c2,0,4.1,0,4.1,2C2560.4,222,2560.4,226,2560.4,232.1z"></path></g></svg>