<svg width="18" height="18" viewBox="0 0 18 18" xmlns="http://www.w3.org/2000/svg"><path d="M0.514695 0.514726C0.905219 0.124201 1.53838 0.124201 1.92891 0.514726L8.99998 7.5858L16.0711 0.514726C16.4616 0.124201 17.0947 0.124201 17.4853 0.514726C17.8758 0.90525 17.8758 1.53841 17.4853 1.92894L10.4142 9.00001L17.4853 16.0711C17.8758 16.4616 17.8758 17.0948 17.4853 17.4853C17.0947 17.8758 16.4616 17.8758 16.071 17.4853L8.99998 10.4142L1.92892 17.4853C1.5384 17.8758 0.905233 17.8758 0.514708 17.4853C0.124184 17.0948 0.124184 16.4616 0.514708 16.0711L7.58577 9.00001L0.514695 1.92894C0.124171 1.53841 0.124171 0.90525 0.514695 0.514726Z"/></svg>