<svg width="40" height="40" viewBox="0 0 40 40" xmlns="http://www.w3.org/2000/svg"><path d="M20 0C8.97207 0 0 8.97207 0 20C0 31.0279 8.97207 40 20 40C31.0279 40 40 31.0279 40 20C40 8.97207 31.0279 0 20 0ZM20 3C29.4066 3 37 10.5934 37 20C37 29.4066 29.4066 37 20 37C10.5934 37 3 29.4066 3 20C3 10.5934 10.5934 3 20 3ZM20 10C19.4696 10 18.9609 10.2107 18.5858 10.5858C18.2107 10.9609 18 11.4696 18 12C18 12.5304 18.2107 13.0391 18.5858 13.4142C18.9609 13.7893 19.4696 14 20 14C20.5304 14 21.0391 13.7893 21.4142 13.4142C21.7893 13.0391 22 12.5304 22 12C22 11.4696 21.7893 10.9609 21.4142 10.5858C21.0391 10.2107 20.5304 10 20 10ZM19.9766 16.9785C19.5791 16.9847 19.2003 17.1485 18.9235 17.4337C18.6466 17.719 18.4943 18.1025 18.5 18.5V29.5C18.4972 29.6988 18.5339 29.8961 18.608 30.0806C18.6822 30.265 18.7922 30.4329 18.9318 30.5745C19.0713 30.716 19.2376 30.8284 19.421 30.9051C19.6044 30.9819 19.8012 31.0214 20 31.0214C20.1988 31.0214 20.3956 30.9819 20.579 30.9051C20.7624 30.8284 20.9287 30.716 21.0682 30.5745C21.2078 30.4329 21.3178 30.265 21.392 30.0806C21.4661 29.8961 21.5028 29.6988 21.5 29.5V18.5C21.5029 18.2992 21.4654 18.0999 21.3899 17.9139C21.3143 17.7279 21.2022 17.5589 21.0601 17.417C20.918 17.2751 20.7489 17.1632 20.5628 17.0879C20.3767 17.0126 20.1773 16.9754 19.9766 16.9785Z"/></svg>