<svg width="43" height="19" viewBox="0 0 43 19" xmlns="http://www.w3.org/2000/svg"><path d="M42.2495 10.4858L34.437 18.2983C34.144 18.5913 33.7534 18.7378 33.3628 18.7378C32.9233 18.7378 32.5327 18.5913 32.2397 18.2983C31.605 17.7124 31.605 16.687 32.2397 16.1011L37.3667 10.9253H2.42529C1.54639 10.9253 0.862793 10.2417 0.862793 9.36279C0.862793 8.53271 1.54639 7.80029 2.42529 7.80029H37.3667L32.2397 2.67334C31.605 2.0874 31.605 1.06201 32.2397 0.476074C32.8257 -0.158691 33.8511 -0.158691 34.437 0.476074L42.2495 8.28857C42.8843 8.87451 42.8843 9.8999 42.2495 10.4858Z"/></svg>