<svg width="42" height="19" viewBox="0 0 42 19" xmlns="http://www.w3.org/2000/svg"><path d="M0.476074 10.4858L8.28857 18.2983C8.58154 18.5913 8.97217 18.7378 9.36279 18.7378C9.80225 18.7378 10.1929 18.5913 10.4858 18.2983C11.1206 17.7124 11.1206 16.687 10.4858 16.1011L5.35889 10.9253H40.3003C41.1792 10.9253 41.8628 10.2417 41.8628 9.36279C41.8628 8.53271 41.1792 7.80029 40.3003 7.80029H5.35889L10.4858 2.67334C11.1206 2.0874 11.1206 1.06201 10.4858 0.476074C9.8999 -0.158691 8.87451 -0.158691 8.28857 0.476074L0.476074 8.28857C-0.158691 8.87451 -0.158691 9.8999 0.476074 10.4858Z"/></svg>