<svg width="14" height="19" viewBox="0 0 14 19" xmlns="http://www.w3.org/2000/svg"><path d="M13.5 16C13.5 17.2656 12.4805 18.25 11.25 18.25H2.25C0.984375 18.25 0 17.2656 0 16H1.125C1.125 16.6328 1.61719 17.125 2.25 17.125H11.25C11.8477 17.125 12.375 16.6328 12.375 16H13.5ZM8.4375 7C7.48828 7 6.75 6.26172 6.75 5.3125V1.375H2.25C1.61719 1.375 1.125 1.90234 1.125 2.5V8.125H0V2.5C0 1.26953 0.984375 0.25 2.25 0.25H7.73438C8.15625 0.25 8.61328 0.460938 8.92969 0.777344L12.9727 4.82031C13.2891 5.13672 13.5 5.59375 13.5 6.01562V8.125H12.375V7H8.4375ZM12.1992 5.62891L8.12109 1.55078C8.05078 1.48047 7.94531 1.44531 7.875 1.41016V5.3125C7.875 5.62891 8.12109 5.875 8.4375 5.875H12.3398C12.3047 5.80469 12.2695 5.69922 12.1992 5.62891ZM3.09375 9.25C4.14844 9.25 5.0625 10.1641 5.0625 11.2188C5.0625 12.3086 4.14844 13.1875 3.09375 13.1875H2.8125V14.3125C2.8125 14.6289 2.53125 14.875 2.25 14.875C1.93359 14.875 1.6875 14.6289 1.6875 14.3125V9.8125C1.6875 9.53125 1.93359 9.25 2.25 9.25H3.09375ZM3.9375 11.2188C3.9375 10.7617 3.55078 10.375 3.09375 10.375H2.8125V12.0625H3.09375C3.55078 12.0625 3.9375 11.7109 3.9375 11.2188ZM5.625 9.8125C5.625 9.53125 5.87109 9.25 6.1875 9.25H7.03125C7.94531 9.25 8.71875 10.0234 8.71875 10.9375V13.1875C8.71875 14.1367 7.94531 14.875 7.03125 14.875H6.1875C5.87109 14.875 5.625 14.6289 5.625 14.3125V9.8125ZM6.75 13.75H7.03125C7.3125 13.75 7.59375 13.5039 7.59375 13.1875V10.9375C7.59375 10.6562 7.3125 10.375 7.03125 10.375H6.75V13.75ZM11.8125 9.25C12.0938 9.25 12.375 9.53125 12.375 9.8125C12.375 10.1289 12.0938 10.375 11.8125 10.375H10.6875V11.5H11.8125C12.0938 11.5 12.375 11.7812 12.375 12.0625C12.375 12.3789 12.0938 12.625 11.8125 12.625H10.6875V14.3125C10.6875 14.6289 10.4062 14.875 10.125 14.875C9.80859 14.875 9.5625 14.6289 9.5625 14.3125V9.8125C9.5625 9.53125 9.80859 9.25 10.125 9.25H11.8125Z"/></svg>