<svg width="27" height="31" viewBox="0 0 27 31" xmlns="http://www.w3.org/2000/svg"><path d="M13.125 15.75C8.96484 15.75 5.625 12.4102 5.625 8.25C5.625 4.14844 8.96484 0.75 13.125 0.75C17.2266 0.75 20.625 4.14844 20.625 8.25C20.625 12.4102 17.2266 15.75 13.125 15.75ZM13.125 2.625C10.0195 2.625 7.5 5.20312 7.5 8.25C7.5 11.3555 10.0195 13.875 13.125 13.875C16.1719 13.875 18.75 11.3555 18.75 8.25C18.75 5.20312 16.1719 2.625 13.125 2.625ZM16.0547 18.5625C21.6797 18.5625 26.25 23.1328 26.25 28.7578C26.25 29.8711 25.3125 30.75 24.1992 30.75H1.99219C0.878906 30.75 0 29.8711 0 28.7578C0 23.1328 4.51172 18.5625 10.1367 18.5625H16.0547ZM24.1992 28.875C24.2578 28.875 24.375 28.8164 24.375 28.7578C24.375 24.1875 20.625 20.4375 16.0547 20.4375H10.1367C5.56641 20.4375 1.875 24.1875 1.875 28.7578C1.875 28.8164 1.93359 28.875 1.99219 28.875H24.1992Z"/></svg>