<svg width="16" height="16" viewBox="0 0 16 16" xmlns="http://www.w3.org/2000/svg"><path d="M14.5787 9.89637C15.2525 10.1893 15.6334 10.9218 15.4283 11.6542L14.813 14.3202C14.6959 15.0233 14.0806 15.4921 13.3482 15.4921C6.25836 15.4921 0.516174 9.74989 0.516174 2.66004C0.516174 1.92762 0.984924 1.31239 1.68805 1.1659L4.35406 0.550668C5.08649 0.374887 5.81891 0.755746 6.11188 1.42957L7.37164 4.35926C7.63531 4.9745 7.43024 5.70692 6.93219 6.14637L5.9361 6.93739C6.69781 8.22645 7.7818 9.31043 9.10016 10.0722L9.89117 9.10536C10.3306 8.57801 11.063 8.37293 11.7076 8.6659L14.5787 9.89637ZM14.0806 11.3319C14.1099 11.2733 14.0806 11.2147 14.022 11.1561L11.1509 9.92567C11.0923 9.89637 11.0338 9.92567 11.0045 9.95496L9.83258 11.3905C9.6275 11.6542 9.24664 11.7128 8.95367 11.5663C6.99078 10.5995 5.37946 8.98817 4.41266 7.02528C4.26617 6.73231 4.35406 6.38075 4.58844 6.17567L6.02399 5.00379C6.08258 4.9745 6.08258 4.9159 6.05328 4.85731L4.82281 1.98621C4.79352 1.95692 4.76422 1.89832 4.70563 1.89832L4.67633 1.92762L2.01031 2.54286C1.95172 2.54286 1.89313 2.60145 1.89313 2.66004C1.89313 8.95887 7.04938 14.0858 13.3482 14.0858C13.4068 14.0858 13.4654 14.0272 13.4654 13.9979L14.0806 11.3319Z"/></svg>