<svg width="15" height="19" viewBox="0 0 15 19" xmlns="http://www.w3.org/2000/svg"><path d="M0.9375 1.02363C1.52344 0.672068 2.26562 0.672068 2.85156 1.06269L14.1016 7.89863C14.6484 8.25019 15 8.87519 15 9.50019C15 10.1643 14.6484 10.7893 14.1016 11.1018L2.85156 17.9768C2.26562 18.3283 1.52344 18.3674 0.9375 18.0158C0.351562 17.7033 0 17.0783 0 16.3752V2.62519C0 1.96113 0.351562 1.33613 0.9375 1.02363ZM2.5 1.57051C2.10938 1.33613 1.64062 1.33613 1.25 1.57051C0.859375 1.76582 0.625 2.19551 0.625 2.62519V16.3752C0.625 16.8439 0.859375 17.2736 1.25 17.4689C1.64062 17.7033 2.10938 17.7033 2.5 17.4689L13.75 10.5939C14.1406 10.3596 14.375 9.96894 14.375 9.50019C14.375 9.07051 14.1406 8.67988 13.75 8.44551L2.5 1.57051Z"/></svg>