<svg width="25" height="25" viewBox="0 0 25 25" xmlns="http://www.w3.org/2000/svg"><path d="M24.6875 12.5C24.6875 13.5547 23.8086 14.4336 22.8125 14.4336H14.375V22.8711C14.375 23.8672 13.4961 24.6875 12.5 24.6875C11.4453 24.6875 10.625 23.8672 10.625 22.8711V14.4336H2.1875C1.13281 14.4336 0.3125 13.5547 0.3125 12.5C0.3125 11.5039 1.13281 10.6836 2.1875 10.6836H10.625V2.24609C10.625 1.19141 11.4453 0.3125 12.5 0.3125C13.4961 0.3125 14.375 1.19141 14.375 2.24609V10.6836H22.8125C23.8086 10.625 24.6875 11.5039 24.6875 12.5Z"/></svg>