<svg width="17" height="16" viewBox="0 0 17 16" xmlns="http://www.w3.org/2000/svg"><path d="M8.32812 0.881348C8.62109 0.881348 8.85547 1.05713 8.97266 1.2915L10.9941 5.42236L15.4766 6.09619C15.7402 6.12549 15.9453 6.33057 16.0332 6.56494C16.1211 6.82861 16.0625 7.09229 15.8574 7.29736L12.6055 10.52L13.3672 15.061C13.4258 15.3247 13.3086 15.6177 13.1035 15.7642C12.8691 15.9106 12.5762 15.9399 12.3418 15.8228L8.32812 13.6548L4.31445 15.8228C4.08008 15.9399 3.81641 15.9106 3.58203 15.7642C3.37695 15.6177 3.25977 15.3247 3.28906 15.061L4.08008 10.52L0.828125 7.29736C0.623047 7.09229 0.564453 6.82861 0.652344 6.56494C0.740234 6.33057 0.945312 6.12549 1.20898 6.09619L5.69141 5.42236L7.71289 1.2915C7.83008 1.05713 8.06445 0.881348 8.32812 0.881348ZM8.32812 3.1958L6.80469 6.38916C6.6875 6.59424 6.51172 6.74072 6.27734 6.77002L2.79102 7.26807L5.31055 9.7583C5.48633 9.93408 5.54492 10.1685 5.51562 10.4028L4.92969 13.8892L8.00586 12.2485C8.21094 12.1313 8.47461 12.1313 8.67969 12.2485L11.7559 13.8892L11.1699 10.4028C11.1113 10.1685 11.1992 9.93408 11.375 9.7583L13.8652 7.26807L10.4082 6.77002C10.1738 6.74072 9.96875 6.59424 9.88086 6.38916L8.32812 3.1958Z"/></svg>