<svg width="18" height="21" viewBox="0 0 18 21" xmlns="http://www.w3.org/2000/svg"><path d="M17.125 3C17.4375 3 17.75 3.3125 17.75 3.625C17.75 3.97656 17.4375 4.25 17.125 4.25H16.3828L15.4062 18.1953C15.2891 19.5234 14.1953 20.5 12.9062 20.5H5.05469C3.76562 20.5 2.67188 19.5234 2.55469 18.1953L1.57812 4.25H0.875C0.523438 4.25 0.25 3.97656 0.25 3.625C0.25 3.3125 0.523438 3 0.875 3H4.58594L5.60156 1.39844C5.91406 0.851562 6.53906 0.5 7.16406 0.5H10.7969C11.4219 0.5 12.0469 0.851562 12.3594 1.39844L13.375 3H17.125ZM7.16406 1.75C6.96875 1.75 6.77344 1.86719 6.65625 2.0625L6.03125 3H11.9297L11.3047 2.0625C11.1875 1.86719 10.9922 1.75 10.7969 1.75H7.16406ZM15.1328 4.25H2.82812L3.80469 18.1172C3.84375 18.7422 4.39062 19.25 5.05469 19.25H12.9062C13.5703 19.25 14.1172 18.7422 14.1562 18.1172L15.1328 4.25Z"/></svg>